 <svg  version="1.0" xmlns="http://www.w3.org/2000/svg"  width="300.000000pt" height="122.000000pt" viewBox="0 0 300.000000 122.000000"  preserveAspectRatio="xMidYMid meet">  <g transform="translate(0.000000,122.000000) scale(0.100000,-0.100000)" fill="#cb0e2e" stroke="none"> <path d="M618 1123 c0 -5 -2 -12 -3 -18 -8 -42 -30 -66 -80 -89 -50 -23 -109 -81 -139 -137 -16 -30 -39 -66 -53 -80 -19 -21 -24 -39 -28 -99 -3 -63 -7 -75 -24 -82 -14 -5 -21 -16 -21 -32 0 -57 -2 -56 189 -56 l177 0 -4 41 c-4 36 -2 40 14 35 11 -3 86 -22 167 -42 164 -41 167 -40 167 24 0 25 -4 32 -19 32 -15 0 -19 11 -24 76 -5 57 -13 83 -31 107 -13 18 -33 51 -45 75 -24 48 -84 110 -127 132 -63 31 -83 51 -90 85 -5 31 -21 48 -26 28z m69 -106 c29 -5 60 -26 101 -68 33 -33 77 -107 70 -115 -2 -2 -25 4 -52 14 -43 16 -49 22 -71 75 -23 58 -44 91 -52 83 -3 -2 2 -15 11 -28 8 -13 22 -42 30 -66 l15 -42 -109 0 c-123 0 -121 -1 -89 70 31 68 58 93 94 86 16 -3 40 -7 52 -9z m-157 -71 c-17 -32 -30 -64 -30 -71 0 -6 -18 -17 -41 -24 -23 -7 -48 -15 -57 -18 -10 -4 -13 -2 -8 5 4 6 24 17 46 23 25 8 40 19 44 33 6 23 66 119 72 114 2 -2 -10 -30 -26 -62z m282 -115 c75 -29 108 -56 108 -89 0 -26 -1 -26 -18 8 -20 40 -53 51 -74 23 -10 -15 -23 -18 -65 -15 -38 3 -53 8 -53 18 0 27 -47 64 -80 64 -43 0 -66 -14 -78 -50 -10 -27 -15 -30 -56 -30 -43 0 -46 2 -46 25 0 22 -3 24 -19 15 -11 -5 -28 -10 -39 -10 -11 0 -25 -7 -32 -15 -7 -8 -17 -15 -23 -15 -22 0 27 39 75 60 75 32 123 39 238 36 77 -3 120 -10 162 -25z m-133 -27 c12 -15 21 -33 21 -40 0 -9 12 -14 33 -14 31 0 32 -1 32 -40 0 -22 -3 -40 -8 -40 -5 0 -36 7 -68 15 -53 14 -65 14 -118 0 -85 -22 -87 -21 -86 25 0 39 1 40 38 40 30 0 37 4 37 20 0 57 83 80 119 34z m-262 -45 c4 -16 12 -20 29 -16 22 4 24 1 24 -39 0 -41 -2 -44 -32 -52 -24 -6 -34 -5 -36 4 -2 6 -12 14 -22 17 -24 6 -36 51 -21 83 13 30 51 32 58 3z m478 -14 c5 -16 15 -34 22 -38 16 -10 17 -77 3 -77 -6 0 -40 7 -75 16 l-65 16 0 43 c0 39 2 42 24 38 17 -4 25 0 29 17 8 33 49 23 62 -15z m73 -163 c2 -12 1 -22 -3 -22 -10 0 -328 81 -336 86 -4 2 -5 12 -2 22 4 17 16 16 171 -23 150 -37 167 -43 170 -63z m-589 45 c14 -17 4 -27 -26 -27 -21 0 -22 2 -11 20 15 24 22 25 37 7z m236 -6 c-13 -12 -315 -84 -322 -77 -8 8 8 13 158 51 140 35 180 41 164 26z"/> <path d="M628 793 c3 -14 13 -28 24 -31 13 -3 16 -7 8 -12 -8 -5 -7 -9 4 -13 12 -5 16 0 16 22 0 29 -11 43 -41 54 -13 4 -15 0 -11 -20z"/> <path d="M370 751 c-5 -11 -10 -26 -10 -33 1 -7 7 0 14 17 7 18 15 25 19 18 4 -6 3 -14 -3 -18 -11 -7 -4 -25 9 -25 7 0 8 20 2 53 -2 14 -20 7 -31 -12z"/> <path d="M844 758 c-4 -6 -3 -8 3 -5 11 7 23 -14 23 -40 0 -10 -6 -13 -16 -9 -10 4 -14 1 -12 -6 6 -18 29 -16 41 4 8 12 8 24 -1 42 -12 28 -26 33 -38 14z"/> <path d="M670 549 c0 -17 8 -19 63 -19 34 0 73 -3 87 -7 14 -3 23 -3 20 0 -3 4 -43 15 -88 25 -80 19 -82 19 -82 1z"/> <path d="M150 465 c-21 -25 -4 -60 39 -80 22 -9 42 -23 44 -30 15 -36 -53 -53 -78 -19 -14 18 -14 18 -15 -2 0 -36 58 -46 98 -18 38 26 26 65 -26 88 -33 15 -42 25 -40 40 4 27 34 32 59 10 18 -16 19 -16 19 4 0 19 -6 22 -44 22 -26 0 -48 -6 -56 -15z"/> <path d="M1668 473 c16 -6 17 -144 0 -161 -9 -9 -4 -12 22 -12 26 0 31 3 22 12 -7 7 -12 37 -11 67 l0 56 31 -68 c17 -37 35 -66 41 -64 5 1 21 32 36 67 l26 64 3 -53 c2 -30 -2 -59 -9 -67 -9 -12 -5 -14 27 -14 30 0 35 3 26 12 -17 17 -16 155 1 161 6 3 -1 6 -16 6 -28 1 -37 -12 -79 -119 -9 -24 -11 -21 -43 48 -30 65 -36 72 -62 71 -15 0 -22 -3 -15 -6z"/> <path d="M306 429 c-33 -26 -36 -79 -6 -109 45 -45 140 -8 140 55 0 35 -42 75 -78 75 -16 0 -41 -9 -56 -21z m98 -32 c12 -33 -9 -80 -38 -85 -27 -6 -56 27 -56 63 0 40 17 57 55 53 22 -2 32 -10 39 -31z"/> <path d="M443 438 c-2 -5 1 -8 6 -8 6 0 11 -20 11 -45 0 -54 25 -85 70 -85 45 0 70 31 70 85 0 28 5 45 12 45 6 0 8 3 5 7 -10 9 -57 10 -57 1 0 -4 5 -8 10 -8 14 0 12 -84 -2 -98 -15 -15 -51 -15 -66 0 -14 14 -16 98 -2 98 6 0 10 3 10 8 0 4 -14 7 -31 7 -17 0 -33 -3 -36 -7z"/> <path d="M630 420 c1 -22 2 -23 11 -7 5 9 19 17 29 17 17 0 20 -7 20 -53 0 -29 -5 -58 -12 -65 -9 -9 -3 -12 27 -12 30 0 36 3 27 12 -7 7 -12 36 -12 65 0 46 3 53 20 53 10 0 24 -8 29 -17 9 -16 10 -15 11 7 0 24 -2 25 -75 25 -73 0 -75 -1 -75 -25z"/> <path d="M800 438 c0 -4 5 -10 10 -13 14 -9 12 -99 -2 -113 -9 -9 -4 -12 22 -12 26 0 31 3 22 12 -7 7 -12 22 -12 35 0 20 5 23 40 23 35 0 40 -3 40 -23 0 -13 -5 -28 -12 -35 -9 -9 -3 -12 27 -12 30 0 36 3 27 12 -14 14 -16 118 -2 118 6 0 10 3 10 8 0 9 -57 8 -67 -1 -3 -4 -1 -7 5 -7 7 0 12 -11 12 -25 0 -22 -4 -25 -40 -25 -33 0 -40 3 -40 19 0 11 5 23 10 26 19 12 10 20 -20 20 -16 0 -30 -3 -30 -7z"/> <path d="M990 438 c0 -5 5 -8 10 -8 14 0 12 -104 -2 -118 -9 -9 3 -12 55 -12 61 0 67 2 67 21 0 19 -1 19 -16 5 -27 -27 -64 -15 -64 20 0 26 27 33 48 12 9 -9 12 -6 12 17 0 23 -3 26 -12 17 -22 -22 -48 -14 -48 13 0 21 5 25 29 25 16 0 32 -6 34 -12 3 -7 6 -3 6 9 1 20 -3 21 -59 20 -33 -1 -60 -5 -60 -9z"/> <path d="M1185 385 c-15 -36 -31 -65 -36 -65 -5 0 -9 -4 -9 -10 0 -5 11 -10 24 -10 19 0 22 4 18 25 -4 23 -1 25 31 25 37 0 54 -19 34 -39 -8 -8 -1 -11 28 -11 35 0 37 1 23 18 -8 9 -27 43 -41 75 -14 31 -30 57 -35 57 -5 0 -21 -29 -37 -65z m55 -16 c0 -4 -9 -7 -20 -6 -20 1 -27 26 -13 41 7 7 33 -21 33 -35z"/> <path d="M1348 439 c-10 -5 -18 -21 -18 -35 0 -19 8 -28 36 -40 24 -10 34 -20 32 -32 -5 -26 -34 -26 -58 0 l-22 23 4 -25 c2 -21 9 -26 39 -28 40 -3 72 19 67 47 -2 9 -20 25 -41 36 -20 11 -37 26 -37 33 0 15 42 16 58 0 9 -9 12 -8 12 4 0 26 -41 36 -72 17z"/> <path d="M1440 420 c1 -22 2 -23 11 -7 5 9 19 17 29 17 17 0 20 -7 20 -53 0 -29 -5 -58 -12 -65 -9 -9 -3 -12 27 -12 30 0 36 3 27 12 -7 7 -12 36 -12 65 0 46 3 53 20 53 10 0 24 -8 29 -17 9 -16 10 -15 11 7 0 24 -2 25 -75 25 -73 0 -75 -1 -75 -25z"/> <path d="M1910 438 c0 -5 5 -8 10 -8 14 0 12 -104 -2 -118 -9 -9 -3 -12 27 -12 30 0 36 3 27 12 -14 14 -16 118 -2 118 6 0 10 4 10 8 0 5 -16 8 -35 8 -19 -1 -35 -4 -35 -8z"/> <path d="M2028 439 c-10 -5 -18 -21 -18 -35 0 -19 8 -28 35 -40 39 -16 46 -39 13 -49 -15 -6 -26 -1 -40 16 l-19 24 3 -25 c3 -21 9 -26 39 -28 40 -3 72 19 67 47 -2 9 -20 24 -40 34 -21 10 -38 25 -38 33 0 17 41 19 58 2 9 -9 12 -8 12 4 0 26 -41 36 -72 17z"/> <path d="M2145 434 c-24 -24 -15 -46 28 -69 42 -23 47 -40 15 -51 -16 -5 -27 0 -41 17 l-19 24 3 -25 c3 -21 10 -26 41 -28 28 -2 40 2 51 19 20 28 12 47 -29 64 -40 17 -46 45 -9 45 14 0 25 -4 25 -10 0 -5 5 -10 10 -10 16 0 11 27 -6 34 -27 10 -52 7 -69 -10z"/> <path d="M2293 439 c-48 -25 -51 -104 -4 -128 31 -17 79 -13 101 9 23 23 27 77 7 103 -15 22 -75 30 -104 16z m75 -21 c7 -7 12 -29 12 -50 0 -31 -5 -41 -24 -49 -50 -23 -93 38 -61 87 17 26 53 32 73 12z"/> <path d="M2420 438 c0 -5 5 -8 10 -8 6 0 10 -22 10 -48 0 -56 20 -82 64 -82 51 0 66 16 66 70 0 27 5 52 10 55 19 12 10 21 -17 19 -40 -3 -40 -3 -20 -15 20 -12 23 -67 4 -93 -9 -12 -23 -17 -42 -14 -29 3 -30 6 -33 56 -2 36 1 52 9 52 7 0 9 3 6 7 -10 9 -67 10 -67 1z"/> <path d="M2610 438 c0 -4 5 -8 10 -8 14 0 12 -104 -2 -118 -9 -9 -3 -12 27 -12 30 0 36 3 27 12 -16 16 -15 48 1 48 8 0 20 -11 27 -25 13 -23 46 -42 56 -32 3 3 -7 17 -21 32 -26 25 -26 27 -10 45 20 22 12 60 -13 61 -9 0 -36 1 -59 3 -24 1 -43 -1 -43 -6z m95 -38 c0 -18 -6 -26 -22 -28 -20 -3 -23 1 -23 28 0 27 3 31 23 28 16 -2 22 -10 22 -28z"/> <path d="M2780 438 c0 -5 5 -8 10 -8 14 0 12 -104 -2 -118 -9 -9 -4 -12 26 -12 34 0 36 1 22 16 -18 17 -22 99 -6 109 19 12 10 20 -20 20 -16 0 -30 -3 -30 -7z"/> <path d="M2435 249 c17 -7 15 -8 -10 -6 -25 2 -31 -2 -33 -21 -6 -43 45 -71 76 -40 26 26 1 79 -36 77 -14 0 -13 -2 3 -10z m-18 -40 c-3 -11 -1 -19 4 -19 5 0 10 10 10 23 l2 22 4 -22 c2 -13 8 -23 12 -23 5 0 6 12 3 28 -3 21 -2 24 8 16 22 -21 8 -49 -25 -49 -26 0 -30 4 -33 29 -3 19 0 26 8 21 7 -4 10 -16 7 -26z"/> <path d="M2113 243 c-15 -6 -17 -49 -3 -58 6 -4 5 -13 -2 -24 -16 -25 -3 -51 25 -51 42 0 67 53 32 67 -14 5 -14 8 1 24 28 31 -9 60 -53 42z m44 -19 c8 -21 -13 -42 -28 -27 -13 13 -5 43 11 43 6 0 13 -7 17 -16z m0 -70 c3 -8 1 -20 -5 -26 -15 -15 -43 8 -35 28 7 19 32 18 40 -2z"/> <path d="M158 219 c-27 -15 -22 -38 12 -57 34 -19 37 -30 14 -39 -11 -4 -22 1 -30 12 -13 18 -14 18 -14 -3 0 -17 6 -22 28 -22 55 0 69 41 22 65 -16 9 -30 20 -30 25 0 15 37 12 43 -2 4 -8 6 -7 6 3 1 9 -6 20 -15 23 -19 7 -15 8 -36 -5z"/> <path d="M1508 223 c-28 -7 -23 -48 7 -61 28 -13 34 -42 9 -42 -9 0 -23 8 -30 18 -13 16 -13 16 -14 -1 0 -22 22 -31 55 -23 34 9 34 49 0 64 -14 6 -25 16 -25 22 0 14 37 12 43 -2 4 -8 6 -7 6 3 1 13 -24 34 -32 28 -1 -1 -10 -3 -19 -6z"/> <path d="M1865 219 c-11 -4 -16 -8 -11 -8 5 -1 3 -8 -4 -16 -10 -12 -16 -13 -26 -4 -8 6 -11 15 -8 20 3 5 -7 9 -22 9 l-28 0 27 -28 c29 -31 34 -51 15 -70 -9 -9 -4 -12 23 -11 18 0 28 3 22 6 -21 8 -15 48 13 78 28 31 28 36 -1 24z"/> <path d="M231 203 c0 -11 3 -13 6 -5 2 6 11 12 20 12 12 0 14 -11 11 -50 -3 -47 -2 -50 22 -50 19 0 21 3 12 12 -7 7 -12 29 -12 50 0 31 4 38 19 38 11 0 22 -6 24 -12 3 -8 6 -6 6 5 1 14 -8 17 -54 17 -46 0 -55 -3 -54 -17z"/> <path d="M373 183 c-8 -21 -22 -46 -31 -55 -14 -17 -13 -18 11 -18 20 0 24 4 20 20 -4 16 0 20 22 20 22 0 26 -4 22 -20 -4 -17 0 -20 25 -20 29 0 30 1 16 18 -9 9 -23 34 -31 55 -9 20 -21 37 -27 37 -6 0 -18 -17 -27 -37z"/> <path d="M461 203 c0 -11 3 -13 6 -5 2 6 11 12 20 12 12 0 14 -11 11 -50 -3 -47 -2 -50 22 -50 19 0 21 3 12 12 -7 7 -12 29 -12 50 0 31 4 38 19 38 11 0 22 -6 24 -12 3 -8 6 -6 6 5 1 14 -8 17 -54 17 -46 0 -55 -3 -54 -17z"/> <path d="M595 165 l0 -55 48 0 c35 0 47 4 47 15 0 8 -4 15 -10 15 -5 0 -10 -5 -10 -11 0 -18 -45 -5 -48 15 -3 15 1 18 22 14 21 -4 26 -1 26 15 0 16 -3 17 -15 7 -17 -14 -35 -5 -35 17 0 11 8 14 30 11 17 -3 30 -1 30 4 0 4 -19 8 -42 8 l-43 0 0 -55z"/> <path d="M770 173 c4 -41 9 -49 33 -57 40 -14 61 2 65 50 2 21 9 42 15 46 7 4 -1 8 -18 8 -20 0 -26 -3 -17 -9 8 -5 12 -22 10 -42 -3 -30 -6 -34 -33 -34 -27 0 -30 4 -33 34 -2 20 2 37 10 42 9 6 5 9 -12 9 -25 0 -26 -2 -20 -47z"/> <path d="M909 211 c9 -6 12 -23 10 -55 -4 -40 -2 -46 15 -46 16 0 17 3 8 12 -7 7 -12 26 -12 43 l1 30 38 -42 c21 -24 41 -43 44 -43 3 0 7 25 9 55 3 49 1 55 -16 55 -16 0 -17 -3 -8 -12 7 -7 12 -23 12 -37 -1 -26 -1 -25 -35 12 -21 21 -45 37 -58 37 -16 0 -18 -3 -8 -9z"/> <path d="M1055 165 c0 -52 1 -55 25 -55 19 0 21 3 12 12 -16 16 -15 85 1 91 6 3 1 6 -13 6 -24 1 -25 -2 -25 -54z"/> <path d="M1139 165 c14 -30 28 -55 31 -55 3 0 17 25 31 55 21 46 23 55 10 55 -10 0 -17 -10 -18 -26 -2 -41 -20 -52 -33 -20 -5 15 -8 32 -4 37 3 5 -5 9 -19 9 l-23 0 25 -55z"/> <path d="M1259 174 c2 -32 -1 -49 -10 -55 -9 -6 5 -9 39 -9 43 0 52 3 52 18 0 13 -2 14 -9 4 -12 -19 -45 -11 -49 12 -3 15 1 18 22 14 21 -4 26 -1 26 15 0 16 -3 18 -12 9 -19 -19 -38 -14 -38 9 0 18 5 21 30 17 17 -3 30 -1 30 4 0 4 -19 8 -43 8 l-42 0 4 -46z"/> <path d="M1365 165 c0 -51 2 -55 24 -55 17 0 21 3 14 13 -6 6 -11 29 -11 50 -1 31 2 37 18 37 13 0 20 -7 20 -20 0 -11 5 -20 11 -20 6 0 9 10 7 23 -2 18 -10 23 -43 25 l-40 3 0 -56z"/> <path d="M1585 165 c0 -52 1 -55 25 -55 19 0 21 3 12 12 -7 7 -12 26 -12 43 0 17 5 36 12 43 9 9 7 12 -12 12 -24 0 -25 -3 -25 -55z"/> <path d="M1640 203 c0 -13 3 -14 12 -5 7 7 18 12 25 12 17 0 18 -71 1 -88 -9 -9 -4 -12 23 -11 18 0 28 3 22 6 -18 7 -17 93 0 93 7 0 18 -5 25 -12 9 -9 12 -8 12 5 0 14 -10 17 -60 17 -50 0 -60 -3 -60 -17z"/> <path d="M2028 203 c6 -2 12 -22 12 -43 0 -21 -6 -41 -12 -43 -7 -3 3 -6 22 -6 26 -1 31 2 22 11 -7 7 -12 29 -12 50 0 33 -3 38 -22 37 -13 0 -17 -3 -10 -6z"/> <path d="M2190 200 c0 -5 16 -10 35 -10 l35 0 -23 -37 c-38 -60 -48 -83 -39 -83 5 0 26 31 46 70 l37 70 -45 0 c-26 0 -46 -4 -46 -10z"/> <path d="M2297 203 c-13 -12 -7 -25 7 -14 10 8 16 8 25 -3 9 -10 8 -16 -4 -26 -19 -16 -19 -30 -1 -30 20 0 27 -26 12 -39 -8 -6 -22 -8 -31 -4 -13 4 -16 3 -11 -5 10 -17 42 -15 60 4 20 20 20 29 0 49 -13 12 -14 19 -4 30 17 21 5 45 -23 45 -13 0 -27 -3 -30 -7z"/> <path d="M1410 162 c0 -16 32 -52 46 -52 11 0 9 7 -8 30 -21 29 -38 39 -38 22z"/> </g> </svg> 