<svg width="155" height="34" xmlns="http://www.w3.org/2000/svg" fill="none">

 <g>
  <title>Layer 1</title>
  <path id="svg_1" fill="#ffffff" d="m41.728,25l0,-16.872l3.264,0l0,16.872l-3.264,0zm2.4,-6.912l0,-2.904l8.496,0l0,2.904l-8.496,0zm0,-7.08l0,-2.88l8.904,0l0,2.88l-8.904,0zm11.139,13.992l0,-17.352l3.144,0l0,17.352l-3.144,0zm11.4737,0.24c-1.216,0 -2.296,-0.256 -3.24,-0.768c-0.944,-0.528 -1.696,-1.248 -2.256,-2.16c-0.544,-0.912 -0.816,-1.952 -0.816,-3.12c0,-1.152 0.264,-2.176 0.792,-3.072c0.544,-0.912 1.28,-1.632 2.208,-2.16c0.928,-0.544 1.96,-0.816 3.096,-0.816c1.12,0 2.104,0.256 2.952,0.768c0.864,0.496 1.536,1.184 2.016,2.064c0.496,0.864 0.744,1.848 0.744,2.952c0,0.208 -0.016,0.424 -0.048,0.648c-0.016,0.208 -0.056,0.448 -0.12,0.72l-9.744,0.024l0,-2.352l8.28,-0.024l-1.272,0.984c-0.032,-0.688 -0.16,-1.264 -0.384,-1.728c-0.208,-0.464 -0.52,-0.816 -0.936,-1.056c-0.4,-0.256 -0.896,-0.384 -1.488,-0.384c-0.624,0 -1.168,0.144 -1.632,0.432c-0.464,0.272 -0.824,0.664 -1.08,1.176c-0.24,0.496 -0.36,1.088 -0.36,1.776c0,0.704 0.128,1.32 0.384,1.848c0.272,0.512 0.656,0.912 1.152,1.2c0.496,0.272 1.072,0.408 1.728,0.408c0.592,0 1.128,-0.096 1.608,-0.288c0.48,-0.208 0.896,-0.512 1.248,-0.912l1.848,1.848c-0.56,0.656 -1.248,1.152 -2.064,1.488c-0.8,0.336 -1.672,0.504 -2.616,0.504zm14.3837,-0.24l-3.048,-4.704l-0.648,-0.48l-4.512,-6.408l3.72,0l2.808,4.248l0.6,0.456l4.776,6.888l-3.696,0zm-8.448,0l4.728,-6.624l1.8,2.136l-2.976,4.488l-3.552,0zm7.488,-5.208l-1.848,-2.112l2.76,-4.272l3.528,0l-4.44,6.384zm6.2745,5.208l0,-11.592l3.168,0l0,11.592l-3.168,0zm1.584,-13.464c-0.512,0 -0.936,-0.168 -1.272,-0.504c-0.336,-0.352 -0.504,-0.784 -0.504,-1.296c0,-0.496 0.168,-0.92 0.504,-1.272c0.336,-0.352 0.76,-0.528 1.272,-0.528c0.528,0 0.952,0.176 1.272,0.528c0.336,0.352 0.504,0.776 0.504,1.272c0,0.512 -0.168,0.944 -0.504,1.296c-0.32,0.336 -0.744,0.504 -1.272,0.504zm4.7051,13.464l0,-16.872l3.264,0l0,16.872l-3.264,0zm2.4,0l0,-2.904l8.592,0l0,2.904l-8.592,0zm15.839,0.24c-1.216,0 -2.296,-0.256 -3.24,-0.768c-0.944,-0.528 -1.696,-1.248 -2.256,-2.16c-0.544,-0.912 -0.816,-1.952 -0.816,-3.12c0,-1.152 0.264,-2.176 0.792,-3.072c0.544,-0.912 1.28,-1.632 2.208,-2.16c0.928,-0.544 1.96,-0.816 3.096,-0.816c1.12,0 2.104,0.256 2.952,0.768c0.864,0.496 1.536,1.184 2.016,2.064c0.496,0.864 0.744,1.848 0.744,2.952c0,0.208 -0.016,0.424 -0.048,0.648c-0.016,0.208 -0.056,0.448 -0.12,0.72l-9.744,0.024l0,-2.352l8.28,-0.024l-1.272,0.984c-0.032,-0.688 -0.16,-1.264 -0.384,-1.728c-0.208,-0.464 -0.52,-0.816 -0.936,-1.056c-0.4,-0.256 -0.896,-0.384 -1.488,-0.384c-0.624,0 -1.168,0.144 -1.632,0.432c-0.464,0.272 -0.824,0.664 -1.08,1.176c-0.24,0.496 -0.36,1.088 -0.36,1.776c0,0.704 0.128,1.32 0.384,1.848c0.272,0.512 0.656,0.912 1.152,1.2c0.496,0.272 1.072,0.408 1.728,0.408c0.592,0 1.128,-0.096 1.608,-0.288c0.48,-0.208 0.896,-0.512 1.248,-0.912l1.848,1.848c-0.56,0.656 -1.248,1.152 -2.064,1.488c-0.8,0.336 -1.672,0.504 -2.616,0.504zm12.289,0c-1.056,0 -2.008,-0.264 -2.856,-0.792c-0.848,-0.528 -1.512,-1.248 -1.992,-2.16c-0.48,-0.912 -0.72,-1.936 -0.72,-3.072c0,-1.152 0.24,-2.184 0.72,-3.096c0.48,-0.912 1.144,-1.632 1.992,-2.16c0.848,-0.528 1.8,-0.792 2.856,-0.792c0.832,0 1.576,0.168 2.232,0.504c0.656,0.336 1.176,0.808 1.56,1.416c0.4,0.592 0.616,1.264 0.648,2.016l0,4.176c-0.032,0.768 -0.248,1.448 -0.648,2.04c-0.384,0.592 -0.904,1.064 -1.56,1.416c-0.656,0.336 -1.4,0.504 -2.232,0.504zm0.576,-2.904c0.88,0 1.592,-0.288 2.136,-0.864c0.544,-0.592 0.816,-1.352 0.816,-2.28c0,-0.608 -0.128,-1.144 -0.384,-1.608c-0.24,-0.48 -0.584,-0.848 -1.032,-1.104c-0.432,-0.272 -0.944,-0.408 -1.536,-0.408c-0.576,0 -1.088,0.136 -1.536,0.408c-0.432,0.256 -0.776,0.624 -1.032,1.104c-0.24,0.464 -0.36,1 -0.36,1.608c0,0.624 0.12,1.176 0.36,1.656c0.256,0.464 0.6,0.832 1.032,1.104c0.448,0.256 0.96,0.384 1.536,0.384zm2.784,2.664l0,-3.12l0.504,-2.832l-0.504,-2.784l0,-2.856l3.12,0l0,11.592l-3.12,0zm5.901,0l0,-11.592l3.144,0l0,11.592l-3.144,0zm3.144,-6.408l-1.224,-0.816c0.144,-1.424 0.56,-2.544 1.248,-3.36c0.688,-0.832 1.68,-1.248 2.976,-1.248c0.56,0 1.064,0.096 1.512,0.288c0.448,0.176 0.856,0.472 1.224,0.888l-1.968,2.256c-0.176,-0.192 -0.392,-0.336 -0.648,-0.432c-0.24,-0.096 -0.52,-0.144 -0.84,-0.144c-0.672,0 -1.224,0.216 -1.656,0.648c-0.416,0.416 -0.624,1.056 -0.624,1.92zm14.594,6.408l0,-6.648c0,-0.688 -0.216,-1.248 -0.648,-1.68c-0.432,-0.432 -0.992,-0.648 -1.68,-0.648c-0.448,0 -0.848,0.096 -1.2,0.288c-0.352,0.192 -0.632,0.464 -0.84,0.816c-0.192,0.352 -0.288,0.76 -0.288,1.224l-1.224,-0.624c0,-0.912 0.192,-1.704 0.576,-2.376c0.4,-0.688 0.944,-1.224 1.632,-1.608c0.704,-0.384 1.496,-0.576 2.376,-0.576c0.848,0 1.608,0.216 2.28,0.648c0.672,0.416 1.2,0.968 1.584,1.656c0.384,0.672 0.575,1.4 0.575,2.184l0,7.344l-3.143,0zm-7.8,0l0,-11.592l3.144,0l0,11.592l-3.144,0z"/>
  <path id="svg_2" fill="#4D4C78" d="m16.2271,3.21424l-13.39763,5.26752c-0.31181,0.12439 -0.31181,0.56556 0,0.68995l14.17883,5.57429c0.0868,0.0348 0.1836,0.0348 0.2703,0l14.1789,-5.57429c0.3134,-0.12439 0.3134,-0.56556 0,-0.68995l-13.3977,-5.26752c-0.5888,-0.23221 -1.2438,-0.23221 -1.8327,0z"/>
  <path id="svg_3" fill="#323150" d="m12.2898,8.16995l-4.44326,2.97375l4.37186,1.7199l0.0714,-4.69365z"/>
  <path id="svg_4" fill="#323150" d="m21.9972,8.16995l4.4432,2.97375l-4.3702,1.7199l-0.073,-4.69365z"/>
  <path id="svg_5" fill="#4D4C78" d="m23.7967,18.3899l-13.3065,0l1.2323,-9.59966c0.0198,-0.14899 0.0848,-0.28835 0.1862,-0.39926c0.1014,-0.11092 0.2344,-0.18806 0.3811,-0.22103c3.536,-0.78725 6.7806,-0.79223 9.7339,-0.01492c0.1406,0.03643 0.267,0.11426 0.3628,0.22338c0.0958,0.10912 0.1566,0.24451 0.1746,0.38862l1.2356,9.62287z"/>
  <path id="svg_6" fill="#323150" d="m13.8206,10.2979c0.0195,-0.1491 0.0844,-0.2886 0.1859,-0.39956c0.1014,-0.11096 0.2346,-0.18803 0.3813,-0.22078c2.9522,-0.65678 5.7015,-0.76901 8.2479,-0.33668l-0.0746,-0.57385c-0.018,-0.14411 -0.0788,-0.2795 -0.1746,-0.38862c-0.0958,-0.10912 -0.2222,-0.18695 -0.3628,-0.22338c-2.9522,-0.77731 -6.1968,-0.77233 -9.7339,0.01492c-0.1467,0.03297 -0.2797,0.11011 -0.3811,0.22103c-0.1014,0.11091 -0.1664,0.25027 -0.1862,0.39926l-1.2323,9.59966l2.2921,0l1.0383,-8.092z"/>
  <path id="svg_7" fill="#323150" d="m17.1443,19.2075c3.674,0 6.6524,-0.3661 6.6524,-0.8176c0,-0.4516 -2.9784,-0.8177 -6.6524,-0.8177c-3.674,0 -6.6524,0.3661 -6.6524,0.8177c0,0.4515 2.9784,0.8176 6.6524,0.8176z"/>
  <path id="svg_8" fill="#323150" d="m27.0574,16.864c-0.0437,0.0002 -0.0869,-0.0082 -0.1272,-0.0248c-0.0404,-0.0166 -0.077,-0.041 -0.1079,-0.0719c-0.0308,-0.0308 -0.0553,-0.0675 -0.0718,-0.1078c-0.0166,-0.0404 -0.0251,-0.0836 -0.0248,-0.1272l0,-9.41718c0,-0.08797 0.0349,-0.17234 0.0971,-0.23455c0.0622,-0.06221 0.1466,-0.09716 0.2346,-0.09716c0.0879,0 0.1723,0.03495 0.2345,0.09716c0.0622,0.06221 0.0972,0.14658 0.0972,0.23455l0,9.41718c0,0.088 -0.035,0.1723 -0.0972,0.2345c-0.0622,0.0623 -0.1466,0.0972 -0.2345,0.0972z"/>
  <path id="svg_9" fill="#4D4C78" d="m27.0109,20.123c-0.3047,-0.0004 -0.5968,-0.1217 -0.8122,-0.3371c-0.2155,-0.2155 -0.3367,-0.5075 -0.3371,-0.8122l0,-1.8443c0.0112,-0.2971 0.1372,-0.5782 0.3514,-0.7844c0.2141,-0.2062 0.4998,-0.3213 0.7971,-0.3213c0.2973,0 0.583,0.1151 0.7971,0.3213c0.2142,0.2062 0.3401,0.4873 0.3514,0.7844l0,1.8443c-0.0004,0.3044 -0.1214,0.5962 -0.3365,0.8116c-0.2151,0.2154 -0.5068,0.3368 -0.8112,0.3377z"/>
  <path id="svg_10" fill="#323150" d="m26.4404,19.6039l0,-1.8443c-0.0003,-0.1941 0.0487,-0.3851 0.1424,-0.5552c0.0936,-0.17 0.2289,-0.3135 0.3931,-0.4171c0.1642,-0.1036 0.3519,-0.1638 0.5457,-0.175c0.1938,-0.0113 0.3873,0.0268 0.5624,0.1107c-0.0945,-0.2521 -0.2745,-0.4629 -0.5087,-0.5957c-0.2342,-0.1328 -0.5076,-0.179 -0.7725,-0.1306c-0.2648,0.0485 -0.5041,0.1884 -0.6762,0.3955c-0.1721,0.207 -0.2659,0.468 -0.265,0.7372l0,1.8443c0.0002,0.2167 0.0617,0.4291 0.1773,0.6124c0.1156,0.1834 0.2806,0.3304 0.4761,0.4241c-0.0494,-0.1297 -0.0747,-0.2674 -0.0746,-0.4063z"/>
  <path id="svg_11" fill="#4D4C78" d="m30.3098,21.3188c-0.1043,-0.1406 -0.2401,-0.2548 -0.3965,-0.3335c-0.1564,-0.0786 -0.3291,-0.1194 -0.5041,-0.1192l-25.41544,0c-0.17504,-0.0001 -0.34766,0.0408 -0.50405,0.1194c-0.15638,0.0787 -0.29219,0.1928 -0.39654,0.3333c-1.04598,1.4109 -1.04598,2.8218 0,4.2326c0.10435,0.1406 0.24016,0.2547 0.39654,0.3333c0.15639,0.0786 0.32901,0.1196 0.50405,0.1195l25.41544,0c0.175,0.0002 0.3477,-0.0407 0.5041,-0.1193c0.1564,-0.0786 0.2922,-0.1929 0.3965,-0.3335c1.0482,-1.4108 1.0482,-2.8217 0,-4.2326z"/>
  <path id="svg_12" fill="#3F3E6B" d="m30.9682,24.1682l-25.41542,0c-0.17506,0.0002 -0.34773,-0.0407 -0.50413,-0.1193c-0.15641,-0.0786 -0.29219,-0.1929 -0.39645,-0.3335c-0.70433,-0.9487 -0.93486,-1.8985 -0.69161,-2.8493c-0.16926,0.0057 -0.33507,0.0493 -0.4852,0.1277c-0.15013,0.0784 -0.28075,0.1894 -0.38222,0.325c-1.04598,1.4109 -1.04598,2.8218 0,4.2326c0.10435,0.1405 0.24016,0.2547 0.39654,0.3333c0.15639,0.0786 0.32901,0.1196 0.50405,0.1195l25.41544,0c0.175,0.0002 0.3477,-0.0407 0.5041,-0.1193c0.1564,-0.0786 0.2922,-0.1929 0.3965,-0.3335c0.3438,-0.4611 0.5744,-0.9221 0.6916,-1.3832l-0.0332,0z"/>
  <path id="svg_13" fill="#323150" d="m9.26293,20.8661l-2.07151,0l0,5.1384l2.07151,0l0,-5.1384z"/>
  <path id="svg_14" fill="#323150" d="m26.2115,20.8661l-2.0715,0l0,5.1384l2.0715,0l0,-5.1384z"/>
  <path id="svg_15" fill="#64639C" d="m21.6527,10.5867l-0.0016,0.0002c-0.5467,0.0788 -0.9261,0.5858 -0.8473,1.1325l0.6131,4.2543c0.0788,0.5467 0.5858,0.926 1.1325,0.8473l0.0016,-0.0003c0.5467,-0.0788 0.926,-0.5858 0.8473,-1.1325l-0.6131,-4.2543c-0.0788,-0.5467 -0.5858,-0.926 -1.1325,-0.8472z"/>
  <path id="svg_16" fill="#64639C" d="m18.864,4.75808l-0.0006,0.00156c-0.188,0.51935 0.0806,1.09279 0.6,1.28079l4.0416,1.46304c0.5194,0.18801 1.0928,-0.08061 1.2808,-0.59997l0.0006,-0.00156c0.188,-0.51935 -0.0806,-1.09278 -0.6,-1.28079l-4.0416,-1.46304c-0.5194,-0.188 -1.0928,0.08061 -1.2808,0.59997z"/>
  <path id="svg_17" fill="#64639C" d="m28.1338,17.7861c0,-0.2601 -0.2109,-0.471 -0.4711,-0.471c-0.2601,0 -0.471,0.2109 -0.471,0.471l0,0.9509c0,0.2601 0.2109,0.471 0.471,0.471c0.2602,0 0.4711,-0.2109 0.4711,-0.471l0,-0.9509z"/>
  <path id="svg_18" fill="#F4C23F" d="m21.294,25.4386c0,0.4628 -0.6701,0.8144 -0.8061,1.2307c-0.136,0.4163 0.1907,1.1095 -0.0713,1.4694c-0.2621,0.3599 -1.0117,0.2554 -1.3749,0.5208c-0.3633,0.2654 -0.4876,1.0067 -0.9205,1.1477c-0.4329,0.141 -0.957,-0.3881 -1.4197,-0.3881c-0.4628,0 -1.0018,0.5241 -1.4181,0.3881c-0.4163,-0.136 -0.5606,-0.8856 -0.9205,-1.1477c-0.3599,-0.262 -1.1112,-0.1575 -1.3749,-0.5208c-0.2637,-0.3632 0.068,-1.0366 -0.0713,-1.4694c-0.1393,-0.4329 -0.8061,-0.7679 -0.8061,-1.2307c0,-0.4627 0.6701,-0.8126 0.8061,-1.2289c0.136,-0.4163 -0.1907,-1.1096 0.0713,-1.4695c0.2621,-0.3599 1.0117,-0.2571 1.3749,-0.5208c0.3633,-0.2637 0.4876,-1.0084 0.9205,-1.1477c0.4329,-0.1393 0.957,0.3881 1.4181,0.3881c0.461,0 1.0034,-0.5241 1.4197,-0.3881c0.4163,0.136 0.5606,0.8857 0.9205,1.1477c0.3599,0.2621 1.1112,0.1576 1.3749,0.5208c0.2637,0.3632 -0.0697,1.0366 0.0713,1.4695c0.141,0.4328 0.8061,0.7679 0.8061,1.2289z"/>
  <path id="svg_19" fill="#F4A93F" d="m16.5953,28.7292c-0.5939,-0.0005 -1.1743,-0.177 -1.668,-0.5072c-0.4937,-0.3301 -0.8785,-0.7992 -1.1058,-1.3478c-0.2274,-0.5487 -0.287,-1.1525 -0.1714,-1.735c0.1155,-0.5826 0.4011,-1.1178 0.8206,-1.5382c0.2744,-0.2736 0.5987,-0.4921 0.9553,-0.6435c0.5508,-0.2329 1.1584,-0.2961 1.7453,-0.1815c0.5868,0.1145 1.1261,0.4016 1.5488,0.8245c0.4227,0.4229 0.7096,0.9623 0.8239,1.5492c0.1143,0.5869 0.0508,1.1945 -0.1822,1.7451c-0.2299,0.5438 -0.6148,1.0078 -1.1069,1.3341c-0.492,0.3262 -1.0692,0.5002 -1.6596,0.5003z"/>
  <path id="svg_20" fill="#F4A93F" d="m18.4993,26.379c-0.0272,-0.0603 -0.0771,-0.1075 -0.139,-0.1311c-0.0618,-0.0236 -0.1305,-0.0218 -0.191,0.0051l-1.8443,0.8292c-0.0253,0.0122 -0.0487,0.0278 -0.0697,0.0465c-0.0209,-0.0187 -0.0444,-0.0343 -0.0696,-0.0465l-1.8443,-0.8292c-0.0605,-0.0269 -0.1292,-0.0287 -0.1911,-0.0051c-0.0618,0.0236 -0.1118,0.0708 -0.139,0.1311l-0.8558,1.9057c0.3334,0.1924 0.9039,0.1542 1.2074,0.3748c0.3483,0.2538 0.4793,0.9586 0.8791,1.1328l1.0133,-2.254l0.8989,1.9986c0.3367,0.1459 0.6817,0.3632 0.967,0.2703c0.4329,-0.141 0.5606,-0.8856 0.9205,-1.1477c0.1094,-0.0796 0.2537,-0.126 0.4096,-0.1609l-0.952,-2.1196z"/>
  <path id="svg_21" fill="#DE3226" d="m14.7842,30.8339l-0.4362,-0.7729c-0.0261,-0.0465 -0.0665,-0.0834 -0.1152,-0.1052c-0.0487,-0.0218 -0.1031,-0.0274 -0.1551,-0.0159l-0.8675,0.1858c-0.0451,0.0094 -0.0919,0.0062 -0.1353,-0.0092c-0.0435,-0.0155 -0.0818,-0.0426 -0.1108,-0.0785c-0.0289,-0.0358 -0.0475,-0.079 -0.0535,-0.1247c-0.006,-0.0457 0.0007,-0.0921 0.0193,-0.1343l1.5292,-3.4c0.0272,-0.0603 0.0772,-0.1075 0.139,-0.1311c0.0619,-0.0236 0.1306,-0.0218 0.1911,0.0051l1.8443,0.8292c0.0597,0.0279 0.1062,0.078 0.1295,0.1397c0.0232,0.0617 0.0214,0.13 -0.0052,0.1904l-1.5291,3.4c-0.0187,0.0423 -0.0487,0.0785 -0.0868,0.1047c-0.0381,0.0261 -0.0827,0.0412 -0.1288,0.0434c-0.0461,0.0023 -0.092,-0.0084 -0.1324,-0.0308c-0.0405,-0.0223 -0.0739,-0.0555 -0.0965,-0.0957z"/>
  <path id="svg_22" fill="#B11A31" d="m14.9932,27.0026c0.0284,-0.0615 0.0445,-0.128 0.0472,-0.1958c0.0028,-0.0677 -0.0079,-0.1353 -0.0313,-0.1989c-0.0234,-0.0636 -0.0591,-0.122 -0.1051,-0.1718c-0.046,-0.0498 -0.1014,-0.0901 -0.1629,-0.1184l-0.1476,-0.068c-0.0602,0.0236 -0.1085,0.0701 -0.1344,0.1293l-1.5292,3.4c-0.0186,0.0422 -0.0253,0.0886 -0.0193,0.1343c0.006,0.0457 0.0246,0.0889 0.0535,0.1247c0.029,0.0358 0.0673,0.063 0.1108,0.0785c0.0434,0.0154 0.0902,0.0186 0.1353,0.0092l0.3749,-0.0813l1.4081,-3.0418z"/>
  <path id="svg_23" fill="#DE3226" d="m18.6204,30.8339l0.4362,-0.7729c0.0261,-0.0465 0.0665,-0.0834 0.1152,-0.1052c0.0486,-0.0218 0.103,-0.0274 0.1551,-0.0159l0.8674,0.1858c0.0452,0.0094 0.092,0.0062 0.1354,-0.0092c0.0434,-0.0155 0.0818,-0.0426 0.1107,-0.0785c0.029,-0.0358 0.0475,-0.079 0.0536,-0.1247c0.006,-0.0457 -0.0007,-0.0921 -0.0194,-0.1343l-1.5291,-3.4c-0.0272,-0.0603 -0.0772,-0.1075 -0.139,-0.1311c-0.0619,-0.0236 -0.1306,-0.0218 -0.1911,0.0051l-1.8443,0.8292c-0.0601,0.0275 -0.1068,0.0776 -0.1301,0.1395c-0.0233,0.0618 -0.0213,0.1303 0.0057,0.1906l1.5275,3.4c0.019,0.0422 0.0492,0.0784 0.0874,0.1044c0.0382,0.0261 0.0829,0.0411 0.1291,0.0433c0.0462,0.0023 0.0921,-0.0083 0.1327,-0.0306c0.0405,-0.0223 0.0741,-0.0554 0.097,-0.0955z"/>
  <path id="svg_24" fill="#B11A31" d="m17.2504,27.263l-0.5589,0.2488l1.4827,3.3005c0.019,0.0422 0.0492,0.0784 0.0874,0.1044c0.0382,0.0261 0.0829,0.0411 0.1291,0.0433c0.0462,0.0023 0.0921,-0.0083 0.1327,-0.0306c0.0405,-0.0223 0.0741,-0.0554 0.097,-0.0955l0.1244,-0.2206l-1.4944,-3.3503z"/>
  <path id="svg_25" fill="#B11A31" d="m16.6335,27.0822l-1.8443,-0.8292c-0.0605,-0.0269 -0.1292,-0.0287 -0.1911,-0.0051c-0.0618,0.0236 -0.1118,0.0708 -0.139,0.1311l-0.4179,0.9271c0.2325,0.3748 0.5445,0.694 0.9139,0.935c0.3694,0.241 0.7872,0.398 1.2239,0.4599l0.5789,-1.2887c0.0265,-0.0604 0.0283,-0.1287 0.0051,-0.1904c-0.0233,-0.0617 -0.0698,-0.1118 -0.1295,-0.1397z"/>
  <path id="svg_26" fill="#B11A31" d="m19.2689,27.0955l-0.3234,-0.7165c-0.0272,-0.0603 -0.0772,-0.1075 -0.139,-0.1311c-0.0619,-0.0236 -0.1306,-0.0218 -0.1911,0.0051l-1.8443,0.8292c-0.0601,0.0275 -0.1068,0.0776 -0.1301,0.1395c-0.0233,0.0618 -0.0213,0.1303 0.0057,0.1906l0.5623,1.2538c0.1904,-0.0398 0.3765,-0.0982 0.5556,-0.1741c0.6487,-0.2762 1.1807,-0.7701 1.5043,-1.3965z"/>
  <path id="svg_27" fill="#F8881B" d="m16.7015,28.1769c1.5526,0 2.8112,-1.2586 2.8112,-2.8112c0,-1.5526 -1.2586,-2.8113 -2.8112,-2.8113c-1.5526,0 -2.8113,1.2587 -2.8113,2.8113c0,1.5526 1.2587,2.8112 2.8113,2.8112z"/>
  <path id="svg_28" fill="#F08000" d="m16.7015,27.8485c1.3712,0 2.4828,-1.1116 2.4828,-2.4828c0,-1.3713 -1.1116,-2.4829 -2.4828,-2.4829c-1.3713,0 -2.4829,1.1116 -2.4829,2.4829c0,1.3712 1.1116,2.4828 2.4829,2.4828z"/>
  <path id="svg_29" fill="#F4C23F" d="m16.7015,27.5699c1.2173,0 2.2042,-0.9869 2.2042,-2.2042c0,-1.2174 -0.9869,-2.2042 -2.2042,-2.2042c-1.2174,0 -2.2042,0.9868 -2.2042,2.2042c0,1.2173 0.9868,2.2042 2.2042,2.2042z"/>
  <path id="svg_30" fill="#FAD564" d="m18.6652,22.1166c0.0617,-0.0362 0.1154,-0.0848 0.1575,-0.1427c-0.2172,-0.3283 -0.3682,-0.7944 -0.7015,-0.9022c-0.1145,-0.0381 -0.2372,-0.0249 -0.3666,0.0133c-0.039,0.0751 -0.0584,0.1589 -0.0564,0.2436c0.0021,0.0847 0.0255,0.1675 0.068,0.2407l0.209,0.3632c0.0673,0.1157 0.1776,0.2001 0.307,0.2346c0.1293,0.0345 0.267,0.0163 0.383,-0.0505z"/>
  <path id="svg_31" fill="#FAD564" d="m16.7131,21.6257c0.034,-0.0521 0.0582,-0.11 0.0713,-0.1709c-0.0275,0.0033 -0.0552,0.005 -0.0829,0.005c-0.4047,0 -0.8708,-0.4047 -1.2605,-0.4113c-0.0135,0.0947 0.0002,0.1913 0.0395,0.2786c0.0394,0.0872 0.1027,0.1614 0.1827,0.214l0.3516,0.2305c0.1121,0.0729 0.2484,0.0984 0.3793,0.0711c0.1308,-0.0274 0.2455,-0.1054 0.319,-0.217z"/>
  <path id="svg_32" fill="#FAD564" d="m20.4879,24.2097c-0.141,-0.4329 0.1907,-1.1096 -0.0713,-1.4695c-0.1642,-0.2272 -0.5191,-0.2703 -0.8492,-0.335c-0.0898,0.1489 -0.1288,0.3229 -0.1111,0.4959l0.0647,0.6767c0.0102,0.1069 0.0413,0.2108 0.0917,0.3057c0.0504,0.0949 0.1189,0.179 0.2018,0.2474c0.0829,0.0684 0.1784,0.1198 0.2811,0.1512c0.1028,0.0314 0.2107,0.0423 0.3177,0.032c0.0374,-0.0035 0.0745,-0.0096 0.1111,-0.0182c-0.0143,-0.0278 -0.0265,-0.0566 -0.0365,-0.0862z"/>
  <path id="svg_33" fill="#F44533" d="m15.8559,29.4112c0.0864,-0.1871 0.0048,-0.4088 -0.1823,-0.4953c-0.187,-0.0864 -0.4088,-0.0048 -0.4952,0.1822l-0.284,0.6146c-0.0865,0.1871 -0.0049,0.4089 0.1822,0.4953c0.1871,0.0864 0.4088,0.0049 0.4953,-0.1822l0.284,-0.6146z"/>
  <path id="svg_34" fill="#F44533" d="m19.7451,28.1622c-0.0838,-0.1883 -0.3044,-0.273 -0.4927,-0.1892c-0.1883,0.0839 -0.2729,0.3045 -0.1891,0.4927l0.2753,0.6185c0.0839,0.1883 0.3045,0.273 0.4927,0.1891c0.1883,-0.0838 0.273,-0.3044 0.1892,-0.4927l-0.2754,-0.6184z"/>
  <path id="svg_35" fill="#64639C" d="m28.7076,20.8661l-1.5292,0c-0.4076,0 -0.738,0.3304 -0.738,0.738l0,0.0008c0,0.4076 0.3304,0.7381 0.738,0.7381l1.5292,0c0.4076,0 0.7381,-0.3305 0.7381,-0.7381l0,-0.0008c0,-0.4076 -0.3305,-0.738 -0.7381,-0.738z"/>
  <path id="svg_36" fill="#64639C" d="m22.8679,20.8661l-1.5292,0c-0.4076,0 -0.738,0.3304 -0.738,0.738l0,0.0008c0,0.4076 0.3304,0.7381 0.738,0.7381l1.5292,0c0.4076,0 0.738,-0.3305 0.738,-0.7381l0,-0.0008c0,-0.4076 -0.3304,-0.738 -0.738,-0.738z"/>
  <path id="svg_37" fill="#64639C" d="m6.00888,20.8661l-0.83756,0c-0.40761,0 -0.73805,0.3304 -0.73805,0.738l0,0.0008c0,0.4076 0.33044,0.7381 0.73805,0.7381l0.83756,0c0.40762,0 0.73805,-0.3305 0.73805,-0.7381l0,-0.0008c0,-0.4076 -0.33043,-0.738 -0.73805,-0.738z"/>
 </g>
</svg>