<svg width="155" height="34" viewBox="0 0 155 34" fill="none" xmlns="http://www.w3.org/2000/svg">
<path d="M41.728 25V8.128H44.992V25H41.728ZM44.128 18.088V15.184H52.624V18.088H44.128ZM44.128 11.008V8.128H53.032V11.008H44.128ZM55.267 25V7.648H58.411V25H55.267ZM66.7407 25.24C65.5247 25.24 64.4447 24.984 63.5007 24.472C62.5567 23.944 61.8047 23.224 61.2447 22.312C60.7007 21.4 60.4287 20.36 60.4287 19.192C60.4287 18.04 60.6927 17.016 61.2207 16.12C61.7647 15.208 62.5007 14.488 63.4287 13.96C64.3567 13.416 65.3887 13.144 66.5247 13.144C67.6447 13.144 68.6287 13.4 69.4767 13.912C70.3407 14.408 71.0127 15.096 71.4927 15.976C71.9887 16.84 72.2367 17.824 72.2367 18.928C72.2367 19.136 72.2207 19.352 72.1887 19.576C72.1727 19.784 72.1327 20.024 72.0687 20.296L62.3247 20.32V17.968L70.6047 17.944L69.3327 18.928C69.3007 18.24 69.1727 17.664 68.9487 17.2C68.7407 16.736 68.4287 16.384 68.0127 16.144C67.6127 15.888 67.1167 15.76 66.5247 15.76C65.9007 15.76 65.3567 15.904 64.8927 16.192C64.4287 16.464 64.0687 16.856 63.8127 17.368C63.5727 17.864 63.4527 18.456 63.4527 19.144C63.4527 19.848 63.5807 20.464 63.8367 20.992C64.1087 21.504 64.4927 21.904 64.9887 22.192C65.4847 22.464 66.0607 22.6 66.7167 22.6C67.3087 22.6 67.8447 22.504 68.3247 22.312C68.8047 22.104 69.2207 21.8 69.5727 21.4L71.4207 23.248C70.8607 23.904 70.1727 24.4 69.3567 24.736C68.5567 25.072 67.6847 25.24 66.7407 25.24ZM81.1244 25L78.0764 20.296L77.4284 19.816L72.9164 13.408H76.6364L79.4444 17.656L80.0444 18.112L84.8204 25H81.1244ZM72.6764 25L77.4044 18.376L79.2044 20.512L76.2284 25H72.6764ZM80.1644 19.792L78.3164 17.68L81.0764 13.408H84.6044L80.1644 19.792ZM86.4389 25V13.408H89.6069V25H86.4389ZM88.0229 11.536C87.5109 11.536 87.0869 11.368 86.7509 11.032C86.4149 10.68 86.2469 10.248 86.2469 9.736C86.2469 9.24 86.4149 8.816 86.7509 8.464C87.0869 8.112 87.5109 7.936 88.0229 7.936C88.5509 7.936 88.9749 8.112 89.2949 8.464C89.6309 8.816 89.7989 9.24 89.7989 9.736C89.7989 10.248 89.6309 10.68 89.2949 11.032C88.9749 11.368 88.5509 11.536 88.0229 11.536ZM92.728 25V8.128H95.992V25H92.728ZM95.128 25V22.096H103.72V25H95.128ZM110.967 25.24C109.751 25.24 108.671 24.984 107.727 24.472C106.783 23.944 106.031 23.224 105.471 22.312C104.927 21.4 104.655 20.36 104.655 19.192C104.655 18.04 104.919 17.016 105.447 16.12C105.991 15.208 106.727 14.488 107.655 13.96C108.583 13.416 109.615 13.144 110.751 13.144C111.871 13.144 112.855 13.4 113.703 13.912C114.567 14.408 115.239 15.096 115.719 15.976C116.215 16.84 116.463 17.824 116.463 18.928C116.463 19.136 116.447 19.352 116.415 19.576C116.399 19.784 116.359 20.024 116.295 20.296L106.551 20.32V17.968L114.831 17.944L113.559 18.928C113.527 18.24 113.399 17.664 113.175 17.2C112.967 16.736 112.655 16.384 112.239 16.144C111.839 15.888 111.343 15.76 110.751 15.76C110.127 15.76 109.583 15.904 109.119 16.192C108.655 16.464 108.295 16.856 108.039 17.368C107.799 17.864 107.679 18.456 107.679 19.144C107.679 19.848 107.807 20.464 108.063 20.992C108.335 21.504 108.719 21.904 109.215 22.192C109.711 22.464 110.287 22.6 110.943 22.6C111.535 22.6 112.071 22.504 112.551 22.312C113.031 22.104 113.447 21.8 113.799 21.4L115.647 23.248C115.087 23.904 114.399 24.4 113.583 24.736C112.783 25.072 111.911 25.24 110.967 25.24ZM123.256 25.24C122.2 25.24 121.248 24.976 120.4 24.448C119.552 23.92 118.888 23.2 118.408 22.288C117.928 21.376 117.688 20.352 117.688 19.216C117.688 18.064 117.928 17.032 118.408 16.12C118.888 15.208 119.552 14.488 120.4 13.96C121.248 13.432 122.2 13.168 123.256 13.168C124.088 13.168 124.832 13.336 125.488 13.672C126.144 14.008 126.664 14.48 127.048 15.088C127.448 15.68 127.664 16.352 127.696 17.104V21.28C127.664 22.048 127.448 22.728 127.048 23.32C126.664 23.912 126.144 24.384 125.488 24.736C124.832 25.072 124.088 25.24 123.256 25.24ZM123.832 22.336C124.712 22.336 125.424 22.048 125.968 21.472C126.512 20.88 126.784 20.12 126.784 19.192C126.784 18.584 126.656 18.048 126.4 17.584C126.16 17.104 125.816 16.736 125.368 16.48C124.936 16.208 124.424 16.072 123.832 16.072C123.256 16.072 122.744 16.208 122.296 16.48C121.864 16.736 121.52 17.104 121.264 17.584C121.024 18.048 120.904 18.584 120.904 19.192C120.904 19.816 121.024 20.368 121.264 20.848C121.52 21.312 121.864 21.68 122.296 21.952C122.744 22.208 123.256 22.336 123.832 22.336ZM126.616 25V21.88L127.12 19.048L126.616 16.264V13.408H129.736V25H126.616ZM132.517 25V13.408H135.661V25H132.517ZM135.661 18.592L134.437 17.776C134.581 16.352 134.997 15.232 135.685 14.416C136.373 13.584 137.365 13.168 138.661 13.168C139.221 13.168 139.725 13.264 140.173 13.456C140.621 13.632 141.029 13.928 141.397 14.344L139.429 16.6C139.253 16.408 139.037 16.264 138.781 16.168C138.541 16.072 138.261 16.024 137.941 16.024C137.269 16.024 136.717 16.24 136.285 16.672C135.869 17.088 135.661 17.728 135.661 18.592ZM150.255 25V18.352C150.255 17.664 150.039 17.104 149.607 16.672C149.175 16.24 148.615 16.024 147.927 16.024C147.479 16.024 147.079 16.12 146.727 16.312C146.375 16.504 146.095 16.776 145.887 17.128C145.695 17.48 145.599 17.888 145.599 18.352L144.375 17.728C144.375 16.816 144.567 16.024 144.951 15.352C145.351 14.664 145.895 14.128 146.583 13.744C147.287 13.36 148.079 13.168 148.959 13.168C149.807 13.168 150.567 13.384 151.239 13.816C151.911 14.232 152.439 14.784 152.823 15.472C153.207 16.144 153.398 16.872 153.398 17.656V25H150.255ZM142.455 25V13.408H145.599V25H142.455Z" fill="#0E0E0E"/>
<path d="M16.2271 3.21424L2.82947 8.48176C2.51766 8.60615 2.51766 9.04732 2.82947 9.17171L17.0083 14.746C17.0951 14.7808 17.1919 14.7808 17.2786 14.746L31.4575 9.17171C31.7709 9.04732 31.7709 8.60615 31.4575 8.48176L18.0598 3.21424C17.471 2.98203 16.816 2.98203 16.2271 3.21424Z" fill="#4D4C78"/>
<path d="M12.2898 8.16995L7.84654 11.1437L12.2184 12.8636L12.2898 8.16995Z" fill="#323150"/>
<path d="M21.9972 8.16995L26.4404 11.1437L22.0702 12.8636L21.9972 8.16995Z" fill="#323150"/>
<path d="M23.7967 18.3899H10.4902L11.7225 8.79024C11.7423 8.64125 11.8073 8.50189 11.9087 8.39098C12.0101 8.28006 12.1431 8.20292 12.2898 8.16995C15.8258 7.3827 19.0704 7.37772 22.0237 8.15503C22.1643 8.19146 22.2907 8.26929 22.3865 8.37841C22.4823 8.48753 22.5431 8.62292 22.5611 8.76703L23.7967 18.3899Z" fill="#4D4C78"/>
<path d="M13.8206 10.2979C13.8401 10.1488 13.905 10.0093 14.0065 9.89834C14.1079 9.78738 14.2411 9.71031 14.3878 9.67756C17.34 9.02078 20.0893 8.90855 22.6357 9.34088L22.5611 8.76703C22.5431 8.62292 22.4823 8.48753 22.3865 8.37841C22.2907 8.26929 22.1643 8.19146 22.0237 8.15503C19.0715 7.37772 15.8269 7.3827 12.2898 8.16995C12.1431 8.20292 12.0101 8.28006 11.9087 8.39098C11.8073 8.50189 11.7423 8.64125 11.7225 8.79024L10.4902 18.3899H12.7823L13.8206 10.2979Z" fill="#323150"/>
<path d="M17.1443 19.2075C20.8183 19.2075 23.7967 18.8414 23.7967 18.3899C23.7967 17.9383 20.8183 17.5722 17.1443 17.5722C13.4703 17.5722 10.4919 17.9383 10.4919 18.3899C10.4919 18.8414 13.4703 19.2075 17.1443 19.2075Z" fill="#323150"/>
<path d="M27.0574 16.864C27.0137 16.8642 26.9705 16.8558 26.9302 16.8392C26.8898 16.8226 26.8532 16.7982 26.8223 16.7673C26.7915 16.7365 26.767 16.6998 26.7505 16.6595C26.7339 16.6191 26.7254 16.5759 26.7257 16.5323V7.11512C26.7257 7.02715 26.7606 6.94278 26.8228 6.88057C26.885 6.81836 26.9694 6.78341 27.0574 6.78341C27.1453 6.78341 27.2297 6.81836 27.2919 6.88057C27.3541 6.94278 27.3891 7.02715 27.3891 7.11512V16.5323C27.3891 16.6203 27.3541 16.7046 27.2919 16.7668C27.2297 16.8291 27.1453 16.864 27.0574 16.864Z" fill="#323150"/>
<path d="M27.0109 20.123C26.7062 20.1226 26.4141 20.0013 26.1987 19.7859C25.9832 19.5704 25.862 19.2784 25.8616 18.9737V17.1294C25.8728 16.8323 25.9988 16.5512 26.213 16.345C26.4271 16.1388 26.7128 16.0237 27.0101 16.0237C27.3074 16.0237 27.5931 16.1388 27.8072 16.345C28.0214 16.5512 28.1473 16.8323 28.1586 17.1294V18.9737C28.1582 19.2781 28.0372 19.5699 27.8221 19.7853C27.607 20.0007 27.3153 20.1221 27.0109 20.123Z" fill="#4D4C78"/>
<path d="M26.4404 19.6039V17.7596C26.4401 17.5655 26.4891 17.3745 26.5828 17.2044C26.6764 17.0344 26.8117 16.8909 26.9759 16.7873C27.1401 16.6837 27.3278 16.6235 27.5216 16.6123C27.7154 16.601 27.9089 16.6391 28.084 16.723C27.9895 16.4709 27.8095 16.2601 27.5753 16.1273C27.3411 15.9945 27.0677 15.9483 26.8028 15.9967C26.538 16.0452 26.2987 16.1851 26.1266 16.3922C25.9545 16.5992 25.8607 16.8602 25.8616 17.1294V18.9737C25.8618 19.1904 25.9233 19.4028 26.0389 19.5861C26.1545 19.7695 26.3195 19.9165 26.515 20.0102C26.4656 19.8805 26.4403 19.7428 26.4404 19.6039Z" fill="#323150"/>
<path d="M30.3098 21.3188C30.2055 21.1782 30.0697 21.064 29.9133 20.9853C29.7569 20.9067 29.5842 20.8659 29.4092 20.8661H3.99376C3.81872 20.866 3.6461 20.9069 3.48971 20.9855C3.33333 21.0642 3.19752 21.1783 3.09317 21.3188C2.04719 22.7297 2.04719 24.1406 3.09317 25.5514C3.19752 25.692 3.33333 25.8061 3.48971 25.8847C3.6461 25.9633 3.81872 26.0043 3.99376 26.0042H29.4092C29.5842 26.0044 29.7569 25.9635 29.9133 25.8849C30.0697 25.8063 30.2055 25.692 30.3098 25.5514C31.358 24.1406 31.358 22.7297 30.3098 21.3188Z" fill="#4D4C78"/>
<path d="M30.9682 24.1682H5.55278C5.37772 24.1684 5.20505 24.1275 5.04865 24.0489C4.89224 23.9703 4.75646 23.856 4.6522 23.7154C3.94787 22.7667 3.71734 21.8169 3.96059 20.8661C3.79133 20.8718 3.62552 20.9154 3.47539 20.9938C3.32526 21.0722 3.19464 21.1832 3.09317 21.3188C2.04719 22.7297 2.04719 24.1406 3.09317 25.5514C3.19752 25.6919 3.33333 25.8061 3.48971 25.8847C3.6461 25.9633 3.81872 26.0043 3.99376 26.0042H29.4092C29.5842 26.0044 29.7569 25.9635 29.9133 25.8849C30.0697 25.8063 30.2055 25.692 30.3098 25.5514C30.6536 25.0903 30.8842 24.6293 31.0014 24.1682H30.9682Z" fill="#3F3E6B"/>
<path d="M9.26293 20.8661H7.19142V26.0045H9.26293V20.8661Z" fill="#323150"/>
<path d="M26.2115 20.8661H24.14V26.0045H26.2115V20.8661Z" fill="#323150"/>
<path d="M21.6527 10.5867L21.6511 10.5869C21.1044 10.6657 20.725 11.1727 20.8038 11.7194L21.4169 15.9737C21.4957 16.5204 22.0027 16.8997 22.5494 16.821L22.551 16.8207C23.0977 16.7419 23.477 16.2349 23.3983 15.6882L22.7852 11.4339C22.7064 10.8872 22.1994 10.5079 21.6527 10.5867Z" fill="#64639C"/>
<path d="M18.864 4.75808L18.8634 4.75964C18.6754 5.27899 18.944 5.85243 19.4634 6.04043L23.505 7.50347C24.0244 7.69148 24.5978 7.42286 24.7858 6.9035L24.7864 6.90194C24.9744 6.38259 24.7058 5.80916 24.1864 5.62115L20.1448 4.15811C19.6254 3.97011 19.052 4.23872 18.864 4.75808Z" fill="#64639C"/>
<path d="M28.1338 17.7861C28.1338 17.526 27.9229 17.3151 27.6627 17.3151C27.4026 17.3151 27.1917 17.526 27.1917 17.7861V18.737C27.1917 18.9971 27.4026 19.208 27.6627 19.208C27.9229 19.208 28.1338 18.9971 28.1338 18.737V17.7861Z" fill="#64639C"/>
<path d="M21.294 25.4386C21.294 25.9014 20.6239 26.253 20.4879 26.6693C20.3519 27.0856 20.6786 27.7788 20.4166 28.1387C20.1545 28.4986 19.4049 28.3941 19.0417 28.6595C18.6784 28.9249 18.5541 29.6662 18.1212 29.8072C17.6883 29.9482 17.1642 29.4191 16.7015 29.4191C16.2387 29.4191 15.6997 29.9432 15.2834 29.8072C14.8671 29.6712 14.7228 28.9216 14.3629 28.6595C14.003 28.3975 13.2517 28.502 12.988 28.1387C12.7243 27.7755 13.056 27.1021 12.9167 26.6693C12.7774 26.2364 12.1106 25.9014 12.1106 25.4386C12.1106 24.9759 12.7807 24.626 12.9167 24.2097C13.0527 23.7934 12.726 23.1001 12.988 22.7402C13.2501 22.3803 13.9997 22.4831 14.3629 22.2194C14.7262 21.9557 14.8505 21.211 15.2834 21.0717C15.7163 20.9324 16.2404 21.4598 16.7015 21.4598C17.1625 21.4598 17.7049 20.9357 18.1212 21.0717C18.5375 21.2077 18.6818 21.9574 19.0417 22.2194C19.4016 22.4815 20.1529 22.377 20.4166 22.7402C20.6803 23.1034 20.3469 23.7768 20.4879 24.2097C20.6289 24.6425 21.294 24.9776 21.294 25.4386Z" fill="#F4C23F"/>
<path d="M16.5953 28.7292C16.0014 28.7287 15.421 28.5522 14.9273 28.222C14.4336 27.8919 14.0488 27.4228 13.8215 26.8742C13.5941 26.3255 13.5345 25.7217 13.6501 25.1392C13.7656 24.5566 14.0512 24.0214 14.4707 23.601C14.7451 23.3274 15.0694 23.1089 15.426 22.9575C15.9768 22.7246 16.5844 22.6614 17.1713 22.776C17.7581 22.8905 18.2974 23.1776 18.7201 23.6005C19.1428 24.0234 19.4297 24.5628 19.544 25.1497C19.6583 25.7366 19.5948 26.3442 19.3618 26.8948C19.1319 27.4386 18.747 27.9026 18.2549 28.2289C17.7629 28.5551 17.1857 28.7291 16.5953 28.7292Z" fill="#F4A93F"/>
<path d="M18.4993 26.379C18.4721 26.3187 18.4222 26.2715 18.3603 26.2479C18.2985 26.2243 18.2298 26.2261 18.1693 26.253L16.325 27.0822C16.2997 27.0944 16.2763 27.11 16.2553 27.1287C16.2344 27.11 16.2109 27.0944 16.1857 27.0822L14.3414 26.253C14.2809 26.2261 14.2122 26.2243 14.1503 26.2479C14.0885 26.2715 14.0385 26.3187 14.0113 26.379L13.1555 28.2847C13.4889 28.4771 14.0594 28.4389 14.3629 28.6595C14.7112 28.9133 14.8422 29.6181 15.242 29.7923L16.2553 27.5383L17.1542 29.5369C17.4909 29.6828 17.8359 29.9001 18.1212 29.8072C18.5541 29.6662 18.6818 28.9216 19.0417 28.6595C19.1511 28.5799 19.2954 28.5335 19.4513 28.4986L18.4993 26.379Z" fill="#F4A93F"/>
<path d="M14.7842 30.8339L14.348 30.061C14.3219 30.0145 14.2815 29.9776 14.2328 29.9558C14.1841 29.934 14.1297 29.9284 14.0777 29.9399L13.2102 30.1257C13.1651 30.1351 13.1183 30.1319 13.0749 30.1165C13.0314 30.101 12.9931 30.0739 12.9641 30.038C12.9352 30.0022 12.9166 29.959 12.9106 29.9133C12.9046 29.8676 12.9113 29.8212 12.9299 29.779L14.4591 26.379C14.4863 26.3187 14.5363 26.2715 14.5981 26.2479C14.66 26.2243 14.7287 26.2261 14.7892 26.253L16.6335 27.0822C16.6932 27.1101 16.7397 27.1602 16.763 27.2219C16.7862 27.2836 16.7844 27.3519 16.7578 27.4123L15.2287 30.8123C15.21 30.8546 15.18 30.8908 15.1419 30.917C15.1038 30.9431 15.0592 30.9582 15.0131 30.9604C14.967 30.9627 14.9211 30.952 14.8807 30.9296C14.8402 30.9073 14.8068 30.8741 14.7842 30.8339Z" fill="#DE3226"/>
<path d="M14.9932 27.0026C15.0216 26.9411 15.0377 26.8746 15.0404 26.8068C15.0432 26.7391 15.0325 26.6715 15.0091 26.6079C14.9857 26.5443 14.95 26.4859 14.904 26.4361C14.858 26.3863 14.8026 26.346 14.7411 26.3177L14.5935 26.2497C14.5333 26.2733 14.485 26.3198 14.4591 26.379L12.9299 29.779C12.9113 29.8212 12.9046 29.8676 12.9106 29.9133C12.9166 29.959 12.9352 30.0022 12.9641 30.038C12.9931 30.0738 13.0314 30.101 13.0749 30.1165C13.1183 30.1319 13.1651 30.1351 13.2102 30.1257L13.5851 30.0444L14.9932 27.0026Z" fill="#B11A31"/>
<path d="M18.6204 30.8339L19.0566 30.061C19.0827 30.0145 19.1231 29.9776 19.1718 29.9558C19.2204 29.934 19.2748 29.9284 19.3269 29.9399L20.1943 30.1257C20.2395 30.1351 20.2863 30.1319 20.3297 30.1165C20.3731 30.101 20.4115 30.0739 20.4404 30.038C20.4694 30.0022 20.4879 29.959 20.494 29.9133C20.5 29.8676 20.4933 29.8212 20.4746 29.779L18.9455 26.379C18.9183 26.3187 18.8683 26.2715 18.8065 26.2479C18.7446 26.2243 18.6759 26.2261 18.6154 26.253L16.7711 27.0822C16.711 27.1097 16.6643 27.1598 16.641 27.2217C16.6177 27.2835 16.6197 27.352 16.6467 27.4123L18.1742 30.8123C18.1932 30.8545 18.2234 30.8907 18.2616 30.9167C18.2998 30.9428 18.3445 30.9578 18.3907 30.96C18.4369 30.9623 18.4828 30.9517 18.5234 30.9294C18.5639 30.9071 18.5975 30.874 18.6204 30.8339Z" fill="#DE3226"/>
<path d="M17.2504 27.263L16.6915 27.5118L18.1742 30.8123C18.1932 30.8545 18.2234 30.8907 18.2616 30.9167C18.2998 30.9428 18.3445 30.9578 18.3907 30.96C18.4369 30.9623 18.4828 30.9517 18.5234 30.9294C18.5639 30.9071 18.5975 30.874 18.6204 30.8339L18.7448 30.6133L17.2504 27.263Z" fill="#B11A31"/>
<path d="M16.6335 27.0822L14.7892 26.253C14.7287 26.2261 14.66 26.2243 14.5981 26.2479C14.5363 26.2715 14.4863 26.3187 14.4591 26.379L14.0412 27.3061C14.2737 27.6809 14.5857 28.0001 14.9551 28.2411C15.3245 28.4821 15.7423 28.6391 16.179 28.701L16.7579 27.4123C16.7844 27.3519 16.7862 27.2836 16.763 27.2219C16.7397 27.1602 16.6932 27.1101 16.6335 27.0822Z" fill="#B11A31"/>
<path d="M19.2689 27.0955L18.9455 26.379C18.9183 26.3187 18.8683 26.2715 18.8065 26.2479C18.7446 26.2243 18.6759 26.2261 18.6154 26.253L16.7711 27.0822C16.711 27.1097 16.6643 27.1598 16.641 27.2217C16.6177 27.2835 16.6197 27.352 16.6467 27.4123L17.209 28.6661C17.3994 28.6263 17.5855 28.5679 17.7646 28.492C18.4133 28.2158 18.9453 27.7219 19.2689 27.0955Z" fill="#B11A31"/>
<path d="M16.7015 28.1769C18.2541 28.1769 19.5127 26.9183 19.5127 25.3657C19.5127 23.8131 18.2541 22.5544 16.7015 22.5544C15.1489 22.5544 13.8902 23.8131 13.8902 25.3657C13.8902 26.9183 15.1489 28.1769 16.7015 28.1769Z" fill="#F8881B"/>
<path d="M16.7015 27.8485C18.0727 27.8485 19.1843 26.7369 19.1843 25.3657C19.1843 23.9944 18.0727 22.8828 16.7015 22.8828C15.3302 22.8828 14.2186 23.9944 14.2186 25.3657C14.2186 26.7369 15.3302 27.8485 16.7015 27.8485Z" fill="#F08000"/>
<path d="M16.7015 27.5699C17.9188 27.5699 18.9057 26.583 18.9057 25.3657C18.9057 24.1483 17.9188 23.1615 16.7015 23.1615C15.4841 23.1615 14.4973 24.1483 14.4973 25.3657C14.4973 26.583 15.4841 27.5699 16.7015 27.5699Z" fill="#F4C23F"/>
<path d="M18.6652 22.1166C18.7269 22.0804 18.7806 22.0318 18.8227 21.9739C18.6055 21.6456 18.4545 21.1795 18.1212 21.0717C18.0067 21.0336 17.884 21.0468 17.7546 21.085C17.7156 21.1601 17.6962 21.2439 17.6982 21.3286C17.7003 21.4133 17.7237 21.4961 17.7662 21.5693L17.9752 21.9325C18.0425 22.0482 18.1528 22.1326 18.2822 22.1671C18.4115 22.2016 18.5492 22.1834 18.6652 22.1166Z" fill="#FAD564"/>
<path d="M16.7131 21.6257C16.7471 21.5736 16.7713 21.5157 16.7844 21.4548C16.7569 21.4581 16.7292 21.4598 16.7015 21.4598C16.2968 21.4598 15.8307 21.0551 15.441 21.0485C15.4275 21.1432 15.4412 21.2398 15.4805 21.3271C15.5199 21.4143 15.5832 21.4885 15.6632 21.5411L16.0148 21.7716C16.1269 21.8445 16.2632 21.87 16.3941 21.8427C16.5249 21.8153 16.6396 21.7373 16.7131 21.6257Z" fill="#FAD564"/>
<path d="M20.4879 24.2097C20.3469 23.7768 20.6786 23.1001 20.4166 22.7402C20.2524 22.513 19.8975 22.4699 19.5674 22.4052C19.4776 22.5541 19.4386 22.7281 19.4563 22.9011L19.521 23.5778C19.5312 23.6847 19.5623 23.7886 19.6127 23.8835C19.6631 23.9784 19.7316 24.0625 19.8145 24.1309C19.8974 24.1993 19.9929 24.2507 20.0956 24.2821C20.1984 24.3135 20.3063 24.3244 20.4133 24.3141C20.4507 24.3106 20.4878 24.3045 20.5244 24.2959C20.5101 24.2681 20.4979 24.2393 20.4879 24.2097Z" fill="#FAD564"/>
<path d="M15.8559 29.4112C15.9423 29.2241 15.8607 29.0024 15.6736 28.9159C15.4866 28.8295 15.2648 28.9111 15.1784 29.0981L14.8944 29.7127C14.8079 29.8998 14.8895 30.1216 15.0766 30.208C15.2637 30.2944 15.4854 30.2129 15.5719 30.0258L15.8559 29.4112Z" fill="#F44533"/>
<path d="M19.7451 28.1622C19.6613 27.9739 19.4407 27.8892 19.2524 27.973C19.0641 28.0569 18.9795 28.2775 19.0633 28.4657L19.3386 29.0842C19.4225 29.2725 19.6431 29.3572 19.8313 29.2733C20.0196 29.1895 20.1043 28.9689 20.0205 28.7806L19.7451 28.1622Z" fill="#F44533"/>
<path d="M28.7076 20.8661H27.1784C26.7708 20.8661 26.4404 21.1965 26.4404 21.6041V21.6049C26.4404 22.0125 26.7708 22.343 27.1784 22.343H28.7076C29.1152 22.343 29.4457 22.0125 29.4457 21.6049V21.6041C29.4457 21.1965 29.1152 20.8661 28.7076 20.8661Z" fill="#64639C"/>
<path d="M22.8679 20.8661H21.3387C20.9311 20.8661 20.6007 21.1965 20.6007 21.6041V21.6049C20.6007 22.0125 20.9311 22.343 21.3387 22.343H22.8679C23.2755 22.343 23.6059 22.0125 23.6059 21.6049V21.6041C23.6059 21.1965 23.2755 20.8661 22.8679 20.8661Z" fill="#64639C"/>
<path d="M6.00888 20.8661H5.17132C4.76371 20.8661 4.43327 21.1965 4.43327 21.6041V21.6049C4.43327 22.0125 4.76371 22.343 5.17132 22.343H6.00888C6.4165 22.343 6.74693 22.0125 6.74693 21.6049V21.6041C6.74693 21.1965 6.4165 20.8661 6.00888 20.8661Z" fill="#64639C"/>
</svg>
