<?xml version="1.0" encoding="UTF-8" standalone="no"?>
<!-- Created with Inkscape (http://www.inkscape.org/) -->

<svg
   version="1.1"
   id="svg9"
   xml:space="preserve"
   width="399.98865"
   height="53.096531"
   viewBox="0 0 399.98863 53.096531"
   sodipodi:docname="iowastate.pdf"
   inkscape:version="1.1.1 (3bf5ae0d25, 2021-09-20)"
   xmlns:inkscape="http://www.inkscape.org/namespaces/inkscape"
   xmlns:sodipodi="http://sodipodi.sourceforge.net/DTD/sodipodi-0.dtd"
   xmlns="http://www.w3.org/2000/svg"
   xmlns:svg="http://www.w3.org/2000/svg"><defs
     id="defs13"><clipPath
       clipPathUnits="userSpaceOnUse"
       id="clipPath115"><path
         d="M 0,792 H 1224 V 0 H 0 Z"
         id="path113" /></clipPath><clipPath
       clipPathUnits="userSpaceOnUse"
       id="clipPath1137"><path
         d="M 0,792 H 1224 V 0 H 0 Z"
         id="path1135" /></clipPath><clipPath
       clipPathUnits="userSpaceOnUse"
       id="clipPath1195"><path
         d="M 0,792 H 1224 V 0 H 0 Z"
         id="path1193" /></clipPath><clipPath
       clipPathUnits="userSpaceOnUse"
       id="clipPath1359"><path
         d="M 0,792 H 1224 V 0 H 0 Z"
         id="path1357" /></clipPath></defs><sodipodi:namedview
     id="namedview11"
     pagecolor="#ffffff"
     bordercolor="#666666"
     borderopacity="1.0"
     inkscape:pageshadow="2"
     inkscape:pageopacity="0.0"
     inkscape:pagecheckerboard="0"
     showgrid="false"
     inkscape:zoom="1.87755"
     inkscape:cx="-94.005484"
     inkscape:cy="-145.13595"
     inkscape:window-width="2560"
     inkscape:window-height="1387"
     inkscape:window-x="1912"
     inkscape:window-y="-8"
     inkscape:window-maximized="1"
     inkscape:current-layer="g15" /><g
     id="g15"
     inkscape:groupmode="layer"
     inkscape:label="iowastate"
     transform="matrix(1.3333333,0,0,-1.3333333,-1110.4746,170.5484)"><g
       id="g2429"
       transform="translate(882.4092,95.832)"><path
         d="M 0,0 C 0,0 1.562,-0.029 2.298,-0.029 3.063,-0.029 4.417,0 4.623,0 c 0,-0.265 0.118,-1.001 0.148,-1.235 L 4.595,-1.294 c -0.266,0.705 -0.531,1.029 -2.887,0.853 v -2.973 c 2.179,-0.029 2.474,-0.09 2.533,0.734 H 4.446 C 4.388,-3.414 4.388,-3.855 4.388,-4.563 H 4.212 c -0.03,0.765 -0.325,0.736 -2.504,0.736 v -3.239 c 2.091,-0.119 2.945,-0.059 3.269,0.972 l 0.206,-0.06 C 5.095,-6.535 4.829,-7.537 4.829,-7.537 c 0,0 -2.62,0.028 -3.061,0.028 C 1.031,-7.509 0,-7.537 0,-7.537 v 0.177 c 0.59,0.088 0.678,0.118 0.708,1.089 v 4.946 c 0,1.031 -0.236,1.031 -0.708,1.119 z"
         style="fill:#231f20;fill-opacity:1;fill-rule:nonzero;stroke:none"
         id="path2431" /></g><g
       id="g2433"
       transform="translate(912.7373,95.832)"><path
         d="m 0,0 c 0,0 1.56,-0.029 2.296,-0.029 0.766,0 2.12,0.029 2.326,0.029 0,-0.265 0.117,-1.001 0.148,-1.235 L 4.593,-1.294 c -0.265,0.705 -0.531,1.029 -2.886,0.853 v -2.973 c 2.179,-0.029 2.474,-0.09 2.532,0.734 H 4.445 C 4.387,-3.414 4.387,-3.855 4.387,-4.563 H 4.21 c -0.029,0.765 -0.324,0.736 -2.503,0.736 v -3.239 c 2.091,-0.119 2.944,-0.059 3.269,0.972 l 0.206,-0.06 C 5.093,-6.535 4.828,-7.537 4.828,-7.537 c 0,0 -2.62,0.028 -3.062,0.028 C 1.029,-7.509 0,-7.537 0,-7.537 v 0.177 c 0.588,0.088 0.677,0.118 0.706,1.089 v 4.946 c 0,1.031 -0.235,1.031 -0.706,1.119 z"
         style="fill:#231f20;fill-opacity:1;fill-rule:nonzero;stroke:none"
         id="path2435" /></g><g
       id="g2437"
       transform="translate(973.332,95.8027)"><path
         d="m 0,0 c 0,0 1.56,-0.029 2.296,-0.029 0.766,0 2.12,0.029 2.326,0.029 0,-0.265 0.117,-1.001 0.147,-1.235 L 4.593,-1.296 c -0.266,0.707 -0.531,1.031 -2.886,0.855 v -2.973 c 2.179,-0.031 2.474,-0.088 2.532,0.735 H 4.445 C 4.386,-3.414 4.386,-3.857 4.386,-4.563 H 4.21 c -0.029,0.765 -0.324,0.737 -2.503,0.737 v -3.24 c 2.091,-0.118 2.944,-0.06 3.269,0.972 L 5.181,-6.153 C 5.093,-6.537 4.828,-7.537 4.828,-7.537 c 0,0 -2.621,0.029 -3.062,0.029 C 1.03,-7.508 0,-7.537 0,-7.537 v 0.177 c 0.589,0.088 0.677,0.117 0.706,1.089 v 4.946 c 0,1.032 -0.235,1.032 -0.706,1.119 z"
         style="fill:#231f20;fill-opacity:1;fill-rule:nonzero;stroke:none"
         id="path2439" /></g><g
       id="g2441"
       transform="translate(891.0957,95.832)"><path
         d="M 0,0 C 0,0 0.471,-0.029 0.942,-0.029 1.442,-0.029 1.708,0 1.708,0 l 5.093,-5.83 v 4.565 c 0,0.853 -0.176,1 -0.883,1.088 V 0 c 0,0 0.619,-0.029 1.09,-0.029 C 7.538,-0.029 8.067,0 8.067,0 V -0.177 C 7.479,-0.383 7.332,-0.412 7.332,-1.265 v -6.39 L 6.949,-7.626 1.591,-1.53 v -4.653 c 0,-0.707 0.088,-1.002 0.852,-1.148 v -0.178 c 0,0 -0.618,0.03 -1.118,0.03 -0.471,0 -1.09,-0.03 -1.09,-0.03 v 0.178 c 0.737,0.146 0.854,0.441 0.854,1.148 v 4.918 c 0,0.794 -0.56,0.943 -1.089,1.088 z"
         style="fill:#231f20;fill-opacity:1;fill-rule:nonzero;stroke:none"
         id="path2443" /></g><g
       id="g2445"
       transform="translate(935.585,95.832)"><path
         d="M 0,0 C 0,0 0.471,-0.029 0.941,-0.029 1.443,-0.029 1.678,0 1.678,0 l 5.124,-5.83 v 4.565 c 0,0.853 -0.177,1 -0.884,1.088 V 0 c 0,0 0.618,-0.029 1.089,-0.029 0.53,0 1.06,0.029 1.06,0.029 V -0.177 C 7.479,-0.383 7.331,-0.412 7.331,-1.265 v -6.39 L 6.948,-7.626 1.59,-1.53 v -4.653 c 0,-0.707 0.088,-1.002 0.854,-1.148 v -0.178 c 0,0 -0.619,0.03 -1.119,0.03 -0.471,0 -1.09,-0.03 -1.09,-0.03 v 0.178 c 0.736,0.146 0.855,0.441 0.855,1.148 v 4.918 c 0,0.794 -0.56,0.943 -1.09,1.088 z"
         style="fill:#231f20;fill-opacity:1;fill-rule:nonzero;stroke:none"
         id="path2447" /></g><g
       id="g2449"
       transform="translate(1003.8057,95.832)"><path
         d="M 0,0 C 0,0 0.472,-0.029 0.941,-0.029 1.442,-0.029 1.648,0 1.648,0 l 5.154,-5.83 v 4.565 c 0,0.853 -0.177,1 -0.884,1.088 V 0 c 0,0 0.618,-0.029 1.09,-0.029 C 7.537,-0.029 8.067,0 8.067,0 V -0.177 C 7.479,-0.383 7.331,-0.412 7.331,-1.265 v -6.39 L 6.948,-7.626 1.59,-1.53 v -4.653 c 0,-0.707 0.088,-1.002 0.853,-1.148 v -0.178 c 0,0 -0.618,0.03 -1.119,0.03 -0.47,0 -1.089,-0.03 -1.089,-0.03 v 0.178 c 0.737,0.146 0.854,0.441 0.854,1.148 l 0.001,4.918 c 0,0.794 -0.561,0.943 -1.09,1.088 z"
         style="fill:#231f20;fill-opacity:1;fill-rule:nonzero;stroke:none"
         id="path2451" /></g><g
       id="g2453"
       transform="translate(1058.2168,95.8027)"><path
         d="M 0,0 C 0,0 0.677,-0.029 1.208,-0.029 1.737,-0.029 2.474,0 2.474,0 V -0.206 C 2.002,-0.322 1.737,-0.354 2.062,-0.884 l 1.589,-2.618 1.531,2.589 c 0.206,0.412 0.295,0.62 -0.442,0.736 L 4.74,0 c 0,0 0.501,-0.029 1.002,-0.029 C 6.154,-0.029 6.625,0 6.625,0 V -0.177 C 6.124,-0.293 6.124,-0.412 5.8,-0.884 L 3.828,-3.916 3.857,-6.271 c 0,-1.031 0.266,-1.001 0.884,-1.148 v -0.178 c 0,0 -0.796,0.03 -1.385,0.03 -0.558,0 -1.383,-0.03 -1.383,-0.03 v 0.178 c 0.706,0.147 0.795,0.088 0.825,1.118 v 2.385 L 0.854,-0.913 C 0.383,-0.322 0.441,-0.293 0,-0.206 Z"
         style="fill:#231f20;fill-opacity:1;fill-rule:nonzero;stroke:none"
         id="path2455" /></g><g
       id="g2457"
       transform="translate(962.9961,94.4482)"><path
         d="m 0,0 0.148,1.384 c 0,0 2.532,-0.03 3.122,-0.03 0.558,0 3.15,0.03 3.15,0.03 L 6.479,0 H 6.302 C 6.096,0.824 5.83,0.972 4.653,0.972 H 3.799 v -5.8 c 0,-0.884 0.029,-1.03 0.854,-1.09 v -0.207 c 0,0 -0.825,0.03 -1.383,0.03 -0.59,0 -1.415,-0.03 -1.415,-0.03 v 0.207 c 0.825,0.06 0.854,0.206 0.854,1.09 v 5.8 H 1.855 C 0.678,0.972 0.413,0.824 0.207,0 Z"
         style="fill:#231f20;fill-opacity:1;fill-rule:nonzero;stroke:none"
         id="path2459" /></g><g
       id="g2461"
       transform="translate(861.2988,95.6855)"><path
         d="m 0,0 c 0,0 -0.972,0.324 -1.737,0.324 -1.502,0 -2.62,-1.06 -2.62,-2.15 0,-2.502 3.857,-1.796 3.857,-3.739 0,-1.531 -2.062,-2.12 -3.386,-1.061 -0.296,0.206 -0.324,0.649 -0.384,0.913 h -0.235 l 0.089,-1.413 c 0,0 1.001,-0.412 2.061,-0.412 1.855,0 2.768,1.237 2.768,2.385 0,2.473 -3.887,1.796 -3.887,3.681 0.03,1.383 1.649,1.738 2.856,1.059 0.323,-0.147 0.441,-0.912 0.441,-0.912 h 0.236 z"
         style="fill:#231f20;fill-opacity:1;fill-rule:nonzero;stroke:none"
         id="path2463" /></g><g
       id="g2465"
       transform="translate(876.4043,93.3887)"><path
         d="m 0,0 v -2.591 c 0,-2.15 0,-2.15 -0.708,-2.297 v -0.177 c 0,0 0.678,0.06 1.237,0.06 0.53,0 1.207,-0.06 1.207,-0.06 v 0.177 C 1.029,-4.741 1.029,-4.741 1.029,-2.591 V 0 c 0,2.179 0,2.179 0.707,2.267 v 0.206 c 0,0 -0.677,-0.03 -1.207,-0.03 -0.559,0 -1.237,0.03 -1.237,0.03 V 2.267 C 0,2.179 0,2.179 0,0"
         style="fill:#231f20;fill-opacity:1;fill-rule:nonzero;stroke:none"
         id="path2467" /></g><g
       id="g2469"
       transform="translate(872.0752,95.626)"><path
         d="m 0,0 c 0,0 -1.354,0.354 -2.414,0.354 -2.179,0 -4.152,-1.62 -4.152,-3.975 0,-2.474 1.766,-3.916 4.181,-3.916 1.325,0 2.208,0.383 2.208,0.383 L 0.235,-5.917 0,-5.858 c -0.235,-0.62 -0.354,-0.62 -0.589,-0.854 -0.235,-0.178 -1.031,-0.413 -1.648,-0.413 -0.707,0 -3.181,0.441 -3.181,3.562 0,2.856 1.943,3.534 3.092,3.534 0.824,0 1.442,-0.206 1.679,-0.412 0.264,-0.206 0.441,-0.413 0.53,-0.971 l 0.234,0.058 z"
         style="fill:#231f20;fill-opacity:1;fill-rule:nonzero;stroke:none"
         id="path2471" /></g><g
       id="g2473"
       transform="translate(908.6738,95.6553)"><path
         d="m 0,0 c 0,0 -1.354,0.354 -2.415,0.354 -2.179,0 -4.151,-1.62 -4.151,-3.975 0,-2.474 1.767,-3.916 4.18,-3.916 1.325,0 2.209,0.383 2.209,0.383 L 0.235,-5.917 0,-5.858 c -0.236,-0.62 -0.354,-0.62 -0.59,-0.855 -0.234,-0.177 -1.029,-0.412 -1.647,-0.412 -0.707,0 -3.181,0.441 -3.181,3.562 0,2.857 1.943,3.534 3.092,3.534 0.824,0 1.443,-0.206 1.678,-0.412 0.265,-0.205 0.441,-0.413 0.53,-0.971 l 0.236,0.058 z"
         style="fill:#231f20;fill-opacity:1;fill-rule:nonzero;stroke:none"
         id="path2475" /></g><g
       id="g2477"
       transform="translate(988.4062,95.626)"><path
         d="m 0,0 c 0,0 -1.354,0.354 -2.414,0.354 -2.179,0 -4.151,-1.62 -4.151,-3.975 0,-2.474 1.766,-3.916 4.18,-3.916 1.325,0 2.209,0.383 2.209,0.383 L 0.236,-5.917 0,-5.858 c -0.235,-0.62 -0.353,-0.62 -0.589,-0.854 -0.235,-0.178 -1.03,-0.413 -1.648,-0.413 -0.707,0 -3.181,0.441 -3.181,3.562 0,2.856 1.944,3.534 3.092,3.534 0.824,0 1.443,-0.206 1.679,-0.412 0.264,-0.206 0.441,-0.413 0.529,-0.971 l 0.236,0.058 z"
         style="fill:#231f20;fill-opacity:1;fill-rule:nonzero;stroke:none"
         id="path2479" /></g><g
       id="g2481"
       transform="translate(844.1631,95.8027)"><path
         d="M 0,0 C 0,0 1.236,-0.029 1.973,-0.029 H 4.652 L 4.829,-1.296 4.682,-1.325 c -0.354,0.736 -0.531,0.971 -1.738,0.971 -0.236,0 -0.853,0 -1.148,-0.058 v -3.181 h 0.942 c 1.413,0 1.472,0.091 1.619,0.796 h 0.177 c 0,0 -0.03,-0.766 -0.03,-1.06 0,-0.5 0.03,-0.882 0.03,-0.882 H 4.357 C 4.21,-4.034 4.151,-3.975 2.738,-3.975 H 1.796 v -1.943 c 0,-1.354 0,-1.384 0.824,-1.471 v -0.148 c 0,0 -1.03,0.029 -1.324,0.029 C 1.001,-7.508 0,-7.537 0,-7.537 v 0.148 c 0.677,0.117 0.736,0.146 0.736,1.471 v 4.3 c 0,1.353 -0.03,1.325 -0.736,1.441 z"
         style="fill:#231f20;fill-opacity:1;fill-rule:nonzero;stroke:none"
         id="path2483" /></g><g
       id="g2485"
       transform="translate(1027.0654,95.8027)"><path
         d="M 0,0 V -0.147 C 0.412,-0.235 0.707,-0.235 0.707,-1.235 V -6.331 C 0.707,-7.184 0.589,-7.302 0,-7.389 v -0.178 c 0,0 1.325,0.059 1.855,0.03 0.531,0 2.915,-0.03 2.915,-0.03 0.088,0.501 0.265,0.973 0.413,1.414 L 4.947,-6.094 C 4.77,-6.625 4.564,-7.066 3.563,-7.066 H 1.768 v 5.831 c 0,1 0.323,1 0.765,1.088 V 0 H 1.236 Z"
         style="fill:#231f20;fill-opacity:1;fill-rule:nonzero;stroke:none"
         id="path2487" /></g><g
       id="g2489"
       transform="translate(994.207,92.4473)"><path
         d="m 0,0 h 3.887 v 1.796 c 0,1.206 -0.06,1.353 -0.678,1.412 V 3.385 H 4.446 5.624 V 3.208 C 5.034,3.149 4.976,3.002 4.976,1.796 v -4.3 c 0,-1.146 0.058,-1.353 0.648,-1.413 v -0.207 c 0,0 -0.766,0.03 -1.149,0.03 -0.354,0 -1.266,-0.03 -1.266,-0.03 v 0.207 c 0.618,0.06 0.678,0.267 0.678,1.413 v 1.973 H 0 V -2.504 C 0,-3.65 0.059,-3.857 0.677,-3.917 v -0.207 c 0,0 -0.912,0.03 -1.295,0.03 -0.354,0 -1.119,-0.03 -1.119,-0.03 v 0.207 c 0.589,0.06 0.647,0.267 0.647,1.413 v 4.3 c 0,1.206 -0.058,1.353 -0.647,1.412 V 3.385 H -0.56 0.677 V 3.208 C 0.059,3.149 0,3.002 0,1.796 Z"
         style="fill:#231f20;fill-opacity:1;fill-rule:nonzero;stroke:none"
         id="path2491" /></g><g
       id="g2493"
       transform="translate(1053.7705,95.4805)"><path
         d="m 0,0 c 0,0 -0.971,0.441 -2.296,0.441 -1.325,0 -4.093,-0.883 -4.093,-4.005 0,-2.325 1.914,-3.651 4.005,-3.651 1.266,0 2.061,0.265 2.738,0.5 v 2.298 c 0,0.441 0.207,0.618 0.56,0.676 v 0.206 c 0,0 -0.737,-0.029 -1.119,-0.029 -0.384,0 -1.237,0.029 -1.237,0.029 v -0.206 c 0.324,-0.088 0.824,-0.058 0.824,-0.676 v -2.032 c -0.294,-0.207 -0.824,-0.412 -1.619,-0.412 -1.444,0 -2.974,0.941 -2.974,3.297 0,3.327 2.268,3.651 2.857,3.651 0.765,0 2.177,-0.383 2.207,-1.412 h 0.236 z"
         style="fill:#231f20;fill-opacity:1;fill-rule:nonzero;stroke:none"
         id="path2495" /></g><g
       id="g2497"
       transform="translate(839.5996,92.0049)"><path
         d="m 0,0 c 0,2.473 -1.325,3.533 -2.769,3.533 -1.442,0 -2.767,-1.06 -2.767,-3.533 0,-2.474 1.325,-3.533 2.767,-3.533 C -1.325,-3.533 0,-2.474 0,0 m -6.743,0 c 0,2.238 1.825,3.917 3.974,3.917 2.15,0 4.005,-1.679 4.005,-3.917 -0.03,-2.237 -1.855,-3.916 -4.005,-3.916 -2.149,0 -3.974,1.679 -3.974,3.916"
         style="fill:#231f20;fill-opacity:1;fill-rule:evenodd;stroke:none"
         id="path2499" /></g><g
       id="g2501"
       transform="translate(929.8643,91.9688)"><path
         d="M 0,0 -0.98,2.757 -2.07,0 Z m -2.229,3.871 c 0,0 0.477,-0.013 0.943,-0.013 0.477,0 0.893,0.013 0.893,0.013 L 2.144,-2.755 C 2.376,-3.293 2.682,-3.38 3.037,-3.441 v -0.196 c 0,0 -0.697,0.036 -1.285,0.036 -0.588,0 -1.312,-0.036 -1.312,-0.036 v 0.196 c 0.466,0.074 0.772,0.086 0.539,0.686 l -0.795,2.204 h -2.462 l -0.869,-2.204 c -0.234,-0.6 0.245,-0.625 0.636,-0.686 v -0.196 c 0,0 -0.514,0.036 -0.992,0.036 -0.466,0 -1.004,-0.036 -1.004,-0.036 0,0 -0.013,-0.05 -0.013,0.183 0.416,0.161 0.478,0.161 0.71,0.699 l 2.45,5.732 c 0.196,0.539 -0.305,0.576 -0.869,0.71 z"
         style="fill:#231f20;fill-opacity:1;fill-rule:evenodd;stroke:none"
         id="path2503" /></g><g
       id="g2505"
       transform="translate(949.6582,95.332)"><path
         d="m 0,0 c 0.354,0.117 0.942,0.178 1.296,0.178 1.148,0 3.18,-0.472 3.18,-3.476 0,-2.886 -1.56,-3.357 -2.973,-3.357 -0.561,0 -1.061,0.089 -1.503,0.176 z M -1.766,0.5 V 0.294 c 0.677,-0.059 0.677,-0.177 0.707,-1.412 L -1.06,-5.389 c 0,-1.296 0,-1.353 -0.706,-1.442 v -0.178 c 0,0 0.588,0.03 0.971,0.03 0.383,0 1.296,-0.087 2.062,-0.087 3.327,0 4.387,2.06 4.387,3.827 0,1.678 -1.178,3.829 -3.974,3.829 -0.472,0 -1.414,-0.119 -2.475,-0.119 -0.323,0 -0.971,0.029 -0.971,0.029"
         style="fill:#231f20;fill-opacity:1;fill-rule:evenodd;stroke:none"
         id="path2507" /></g><g
       id="g2509"
       transform="translate(1022.0312,92.0342)"><path
         d="m 0,0 c 0,2.473 -1.326,3.533 -2.769,3.533 -1.442,0 -2.767,-1.06 -2.767,-3.533 0,-2.474 1.325,-3.533 2.767,-3.533 C -1.326,-3.533 0,-2.474 0,0 m -6.742,0 c 0,2.237 1.824,3.917 3.973,3.917 2.151,0 4.005,-1.68 4.005,-3.917 -0.029,-2.237 -1.854,-3.916 -4.005,-3.916 -2.149,0 -3.973,1.679 -3.973,3.916"
         style="fill:#231f20;fill-opacity:1;fill-rule:evenodd;stroke:none"
         id="path2511" /></g><g
       id="g2513"
       transform="translate(1042.2881,92.0342)"><path
         d="m 0,0 c 0,2.473 -1.324,3.533 -2.768,3.533 -1.442,0 -2.767,-1.06 -2.767,-3.533 0,-2.474 1.325,-3.533 2.767,-3.533 C -1.324,-3.533 0,-2.474 0,0 m -6.742,0 c 0,2.237 1.825,3.917 3.974,3.917 2.15,0 4.004,-1.68 4.004,-3.917 -0.029,-2.237 -1.854,-3.916 -4.004,-3.916 -2.149,0 -3.974,1.679 -3.974,3.916"
         style="fill:#231f20;fill-opacity:1;fill-rule:evenodd;stroke:none"
         id="path2515" /></g><g
       id="g2517"
       transform="translate(1033.4189,123.7598)"><path
         d="m 0,0 c 0,0 2.297,-0.059 2.914,-0.059 0.621,0 3.269,0.088 3.269,0.088 V -0.412 C 4.739,-0.619 4.269,-1.001 5.093,-2.974 l 4.742,-11.396 4.593,12.369 c 0.176,0.764 0.263,1.205 -1.15,1.589 V 0 c 0,0 2.209,-0.059 3.033,-0.059 1.06,0.03 2.328,0.059 2.328,0.059 v -0.412 c -1.709,0 -2.092,-0.384 -2.946,-2.591 L 9.335,-18.312 H 8.803 c 0,0 -5.859,14.279 -6.36,15.251 C 1.531,-1.179 1.562,-0.619 0,-0.412 Z"
         style="fill:#231f20;fill-opacity:1;fill-rule:nonzero;stroke:none"
         id="path2519" /></g><g
       id="g2521"
       transform="translate(834.917,120.4326)"><path
         d="m 0,0 v -7.507 c 0,-6.183 0,-6.183 -2.061,-6.537 v -0.559 c 0,0 2.002,0.147 3.563,0.147 1.561,0 3.532,-0.147 3.532,-0.147 v 0.559 C 2.975,-13.69 2.975,-13.69 2.975,-7.507 V 0 c 0,6.183 0,6.183 2.059,6.506 v 0.559 c 0,0 -1.971,-0.086 -3.532,-0.086 -1.561,0 -3.563,0.086 -3.563,0.086 V 6.506 C 0.03,6.183 0,6.183 0,0"
         style="fill:#231f20;fill-opacity:1;fill-rule:nonzero;stroke:none"
         id="path2523" /></g><g
       id="g2525"
       transform="translate(918.6221,127.0283)"><path
         d="m 0,0 c 0,0 -2.768,0.883 -5.005,0.883 -4.21,0 -7.448,-3.002 -7.448,-6.153 0,-7.094 10.981,-5.124 10.981,-10.628 0,-4.418 -5.887,-6.096 -9.656,-3.091 -0.795,0.616 -0.914,1.883 -1.09,2.678 h -0.678 l 0.237,-4.035 c 0,0 2.913,-1.235 5.919,-1.235 5.268,0.029 7.889,3.56 7.889,6.801 0,7.124 -11.071,5.153 -11.041,10.57 0.029,3.916 4.711,4.916 8.157,2.973 0.853,-0.411 1.235,-2.59 1.235,-2.59 h 0.648 z"
         style="fill:#231f20;fill-opacity:1;fill-rule:nonzero;stroke:none"
         id="path2527" /></g><g
       id="g2529"
       transform="translate(919.8887,120.4326)"><path
         d="m 0,0 0.295,3.356 c 0,0 6.095,-0.087 7.448,-0.087 1.355,0 7.567,0.087 7.567,0.087 L 15.457,0 H 14.986 C 14.515,2.032 13.898,2.356 11.041,2.356 H 9.04 v -13.84 c 0,-2.148 0.058,-2.443 2.001,-2.619 v -0.5 c 0,0 -1.943,0.088 -3.298,0.088 -1.353,0 -3.326,-0.088 -3.326,-0.088 v 0.5 c 1.973,0.176 2.032,0.5 2.032,2.619 V 2.356 H 4.417 C 1.561,2.356 0.971,2.032 0.441,0 Z"
         style="fill:#231f20;fill-opacity:1;fill-rule:nonzero;stroke:none"
         id="path2531" /></g><g
       id="g2533"
       transform="translate(965.4951,123.877)"><path
         d="m 0,0 c 0,0 3.71,-0.06 5.476,-0.06 1.827,0 5.095,0.06 5.565,0.06 0.029,-0.588 0.295,-2.384 0.354,-2.913 l -0.413,-0.12 c -0.647,1.679 -1.265,2.416 -6.919,2.004 v -7.126 c 5.241,-0.03 5.948,-0.148 6.094,1.796 h 0.472 c -0.117,-1.738 -0.177,-2.796 -0.117,-4.504 H 10.04 c -0.088,1.854 -0.766,1.737 -5.977,1.737 v -7.686 c 4.974,-0.323 7.066,-0.147 7.832,2.296 l 0.501,-0.176 c -0.236,-0.882 -0.883,-3.298 -0.883,-3.298 0,0 -6.213,0.09 -7.303,0.09 C 2.444,-17.9 0,-17.99 0,-17.99 v 0.472 c 1.443,0.206 1.648,0.236 1.708,2.561 V -3.12 C 1.68,-0.705 1.148,-0.646 0,-0.472 Z"
         style="fill:#231f20;fill-opacity:1;fill-rule:nonzero;stroke:none"
         id="path2535" /></g><g
       id="g2537"
       transform="translate(985.7812,127.5889)"><path
         d="m 0,0 c 0,0 2.12,-0.091 3.623,-0.091 1.5,0 3.59,0.091 3.59,0.091 V -0.561 C 6.242,-0.854 5.065,-0.65 5.065,-4.213 v -9.213 c 0,-3.681 0.883,-4.507 0.883,-4.507 0,0 1.323,-2.561 5.003,-2.561 3.327,0 4.682,2.531 4.682,2.531 0,0 0.766,0.737 0.825,4.33 v 9.392 c -0.059,3.297 -0.353,3.267 -2.679,3.68 V 0 c 0,0 1.295,-0.091 3.387,-0.091 1.588,0 2.914,0.091 2.914,0.091 v -0.561 c -1.355,-0.293 -2.18,-0.47 -2.15,-3.563 v -10.334 c 0.031,-3.592 -1.825,-5.183 -1.825,-5.183 0,0 -2.031,-2.413 -6.389,-2.413 -4.593,0 -6.566,3.031 -6.566,3.031 0,0 -1.176,1.208 -1.176,5.566 v 9.216 c 0,3.297 -0.444,3.443 -1.974,3.68 z"
         style="fill:#231f20;fill-opacity:1;fill-rule:nonzero;stroke:none"
         id="path2539" /></g><g
       id="g2541"
       transform="translate(1006.332,123.7891)"><path
         d="M 0,0 C 0,0 1.061,-0.059 2.237,-0.059 3.445,-0.059 3.945,0 3.945,0 l 12.277,-13.926 v 10.894 c 0,2.061 -0.411,2.384 -2.149,2.591 V 0 c 0,0 1.473,-0.088 2.65,-0.088 1.208,0 2.532,0.088 2.532,0.088 V -0.441 C 17.841,-0.912 17.458,-1 17.458,-3.003 V -18.254 L 16.547,-18.167 3.769,-3.65 v -11.132 c 0,-1.676 0.236,-2.384 2.03,-2.677 v -0.443 c 0,0 -1.442,0.09 -2.678,0.09 -1.118,0 -2.56,-0.09 -2.56,-0.09 v 0.443 c 1.736,0.293 2.03,1.001 2.03,2.677 v 11.75 c 0,1.942 -1.325,2.266 -2.591,2.591 z"
         style="fill:#231f20;fill-opacity:1;fill-rule:nonzero;stroke:none"
         id="path2543" /></g><g
       id="g2545"
       transform="translate(1117.2725,123.7598)"><path
         d="M 0,0 C 0,0 1.619,-0.059 2.856,-0.059 4.092,-0.059 5.829,0 5.829,0 v -0.471 c -1.119,-0.325 -1.767,-0.383 -1,-1.62 l 3.796,-6.18 3.594,6.151 c 0.442,0.912 0.677,1.442 -1.09,1.708 V 0 c 0,0 1.207,-0.059 2.354,-0.059 1.033,0 2.092,0.059 2.092,0.059 v -0.412 c -1.148,-0.266 -1.178,-0.559 -1.943,-1.679 l -4.624,-7.155 0.058,-5.536 c 0,-2.412 0.62,-2.324 2.063,-2.648 v -0.443 c 0,0 -1.856,0.09 -3.21,0.09 -1.354,0 -3.269,-0.09 -3.269,-0.09 v 0.443 c 1.651,0.324 1.857,0.204 1.915,2.618 l 0.03,5.566 -4.565,7.097 c -1.089,1.413 -1,1.442 -2.03,1.678 z"
         style="fill:#231f20;fill-opacity:1;fill-rule:nonzero;stroke:none"
         id="path2547" /></g><g
       id="g2549"
       transform="translate(866.8916,123.877)"><path
         d="M 0,0 C 0,0 1.679,-0.029 3.121,-0.029 4.534,-0.029 6.242,0 6.242,0 V -0.472 C 4.917,-0.617 4.388,-1.118 4.712,-2.149 l 5.122,-12.338 4.417,12.338 c 0.324,1.265 0.029,1.532 -1.767,1.677 V 0 c 0,0 1.354,-0.029 2.473,-0.029 1.148,0 2.65,0.029 2.65,0.029 V -0.472 C 16.341,-0.617 16.105,-1.118 15.692,-2.118 L 9.48,-18.312 H 8.833 L 4.564,-8.067 0.266,-18.312 h -0.03 -0.47 L -6.8,-2.118 c -0.472,1.059 -0.619,1.234 -2.121,1.646 C -8.921,0.06 -8.95,0 -8.95,0 c 0,0 1.648,-0.029 3.062,-0.029 1.444,0 3.18,0.029 3.18,0.029 V -0.472 C -4.15,-0.617 -4.562,-1.118 -4.21,-2.179 l 4.917,-12.308 3.269,7.803 -1.827,4.535 C 1.531,-0.884 1.442,-0.795 0,-0.472 Z"
         style="fill:#231f20;fill-opacity:1;fill-rule:nonzero;stroke:none"
         id="path2551" /></g><g
       id="g2553"
       transform="translate(948.8018,120.4326)"><path
         d="m 0,0 0.295,3.356 c 0,0 6.094,-0.087 7.449,-0.087 1.354,0 7.566,0.087 7.566,0.087 L 15.457,0 H 14.986 C 14.515,2.032 13.896,2.356 11.04,2.356 H 9.038 v -13.84 c 0,-2.148 0.06,-2.443 2.002,-2.619 v -0.5 c 0,0 -1.942,0.088 -3.296,0.088 -1.355,0 -3.328,-0.088 -3.328,-0.088 v 0.5 c 1.973,0.176 2.031,0.5 2.031,2.619 V 2.356 H 4.416 C 1.56,2.356 0.971,2.032 0.441,0 Z"
         style="fill:#231f20;fill-opacity:1;fill-rule:nonzero;stroke:none"
         id="path2555" /></g><g
       id="g2557"
       transform="translate(1096.5146,117.959)"><path
         d="m 0,0 v -6.21 c 0,-5.126 0.03,-5.126 -1.679,-5.419 V -12.1 c 0,0 1.679,0.118 2.945,0.118 1.296,0 2.944,-0.118 2.944,-0.118 v 0.471 c -1.708,0.293 -1.708,0.293 -1.708,5.419 V 0 c 0,5.094 0,5.094 1.708,5.358 V 5.83 C 4.21,5.83 2.562,5.771 1.266,5.771 0,5.771 -1.679,5.83 -1.679,5.83 V 5.358 C 0.06,5.094 0,5.094 0,0"
         style="fill:#231f20;fill-opacity:1;fill-rule:nonzero;stroke:none"
         id="path2559" /></g><g
       id="g2561"
       transform="translate(1029.2393,117.959)"><path
         d="m 0,0 v -6.21 c 0,-5.126 0.029,-5.126 -1.678,-5.419 V -12.1 c 0,0 1.678,0.118 2.944,0.118 1.295,0 2.944,-0.118 2.944,-0.118 v 0.471 c -1.708,0.293 -1.708,0.293 -1.708,5.419 V 0 c 0,5.094 0,5.094 1.708,5.358 V 5.83 C 4.21,5.83 2.561,5.771 1.266,5.771 0,5.771 -1.678,5.83 -1.678,5.83 V 5.358 C 0.058,5.094 0,5.094 0,0"
         style="fill:#231f20;fill-opacity:1;fill-rule:nonzero;stroke:none"
         id="path2563" /></g><g
       id="g2565"
       transform="translate(1052.0283,123.7891)"><path
         d="m 0,0 c 0,0 3.71,-0.059 5.475,-0.059 1.826,0 5.092,0.059 5.565,0.059 0.029,-0.588 0.294,-2.384 0.352,-2.915 l -0.413,-0.117 c -0.646,1.678 -1.264,2.415 -6.916,2.002 v -7.124 c 5.24,-0.03 5.947,-0.147 6.094,1.796 h 0.47 c -0.118,-1.739 -0.176,-2.799 -0.118,-4.505 h -0.47 c -0.088,1.854 -0.767,1.738 -5.976,1.738 v -7.687 c 4.973,-0.324 7.065,-0.147 7.831,2.296 l 0.5,-0.176 c -0.235,-0.883 -0.883,-3.296 -0.883,-3.296 0,0 -6.212,0.086 -7.301,0.086 -1.767,0 -4.21,-0.086 -4.21,-0.086 v 0.47 c 1.441,0.206 1.648,0.235 1.706,2.561 V -3.121 C 1.677,-0.707 1.354,-0.529 0,-0.472 Z"
         style="fill:#231f20;fill-opacity:1;fill-rule:nonzero;stroke:none"
         id="path2567" /></g><g
       id="g2569"
       transform="translate(1101.4902,120.4326)"><path
         d="m 0,0 0.295,3.356 c 0,0 6.096,-0.087 7.449,-0.087 1.354,0 7.569,0.087 7.569,0.087 L 15.458,0 h -0.471 c -0.471,2.032 -1.09,2.356 -3.945,2.356 H 9.039 v -13.84 c 0,-2.148 0.059,-2.443 2.003,-2.619 v -0.5 c 0,0 -1.944,0.088 -3.298,0.088 -1.353,0 -3.326,-0.088 -3.326,-0.088 v 0.5 c 1.973,0.176 2.031,0.5 2.031,2.619 V 2.356 H 4.418 C 1.562,2.356 0.972,2.032 0.441,0 Z"
         style="fill:#231f20;fill-opacity:1;fill-rule:nonzero;stroke:none"
         id="path2571" /></g><g
       id="g2573"
       transform="translate(1091.8623,123.376)"><path
         d="m 0,0 c 0,0 -2.267,0.708 -4.094,0.708 -3.472,0 -6.15,-2.474 -6.15,-5.065 0,-5.83 9.037,-4.209 9.037,-8.745 0,-3.621 -4.827,-5.006 -7.948,-2.531 -0.648,0.5 -0.736,1.56 -0.884,2.208 h -0.559 l 0.205,-3.328 c 0,0 2.385,-1.03 4.858,-1.03 4.328,0.029 6.508,2.943 6.508,5.625 0,5.858 -9.128,4.241 -9.098,8.684 0.028,3.209 3.885,4.035 6.713,2.445 0.706,-0.325 1,-2.12 1,-2.12 h 0.56 z"
         style="fill:#231f20;fill-opacity:1;fill-rule:nonzero;stroke:none"
         id="path2575" /></g><g
       id="g2577"
       transform="translate(856.5586,114.8682)"><path
         d="m 0,0 c 0,5.8 -3.121,8.362 -6.508,8.362 -3.416,0 -6.536,-2.562 -6.536,-8.362 0,-5.861 3.12,-8.392 6.536,-8.392 C -3.121,-8.392 0,-5.861 0,0 m -15.93,0 c 0,5.241 4.3,9.245 9.422,9.245 5.065,0 9.422,-4.004 9.422,-9.245 -0.03,-5.301 -4.357,-9.275 -9.422,-9.275 -5.122,0 -9.422,3.974 -9.422,9.275"
         style="fill:#231f20;fill-opacity:1;fill-rule:nonzero;stroke:none"
         id="path2579" /></g><g
       id="g2581"
       transform="translate(891.4473,114.5742)"><path
         d="M 0,0 -2.355,6.624 -4.976,0 Z m -5.359,9.303 c 0,0 1.149,-0.03 2.267,-0.03 1.149,0 2.15,0.03 2.15,0.03 L 5.153,-6.626 c 0.558,-1.295 1.295,-1.501 2.15,-1.647 v -0.471 c 0,0 -1.679,0.088 -3.093,0.088 -1.412,0 -3.149,-0.088 -3.149,-0.088 v 0.471 c 1.118,0.175 1.854,0.205 1.294,1.647 l -1.913,5.3 h -5.919 l -2.09,-5.3 c -0.559,-1.442 0.588,-1.501 1.532,-1.647 v -0.471 c 0,0 -1.237,0.088 -2.386,0.088 -1.118,0 -2.414,-0.088 -2.414,-0.088 0,0 -0.029,-0.12 -0.029,0.441 1.001,0.382 1.148,0.382 1.708,1.677 l 5.888,13.779 c 0.471,1.296 -0.736,1.384 -2.091,1.708 z"
         style="fill:#231f20;fill-opacity:1;fill-rule:nonzero;stroke:none"
         id="path2583" /></g><g
       id="g2585"
       transform="translate(943.8545,114.4854)"><path
         d="M 0,0 -2.354,6.624 -4.976,0 Z m -5.358,9.304 c 0,0 1.148,-0.03 2.267,-0.03 1.149,0 2.15,0.03 2.15,0.03 L 5.154,-6.625 C 5.713,-7.92 6.448,-8.126 7.302,-8.273 v -0.472 c 0,0 -1.678,0.09 -3.091,0.09 -1.413,0 -3.149,-0.09 -3.149,-0.09 v 0.472 c 1.117,0.176 1.854,0.206 1.293,1.648 l -1.913,5.3 h -5.918 l -2.089,-5.3 c -0.56,-1.442 0.587,-1.501 1.53,-1.648 v -0.472 c 0,0 -1.237,0.09 -2.386,0.09 -1.118,0 -2.413,-0.09 -2.413,-0.09 0,0 -0.029,-0.118 -0.029,0.441 1.001,0.384 1.147,0.384 1.706,1.679 l 5.889,13.779 c 0.471,1.295 -0.735,1.384 -2.09,1.708 z"
         style="fill:#231f20;fill-opacity:1;fill-rule:nonzero;stroke:none"
         id="path2587" /></g><g
       id="g2589"
       transform="translate(1069.5459,115.251)"><path
         d="M 0,0 V 7.243 C 1.885,8.009 5.682,7.802 5.771,3.797 5.859,-0.265 1.648,-0.412 0,0 m 8.304,-5.684 c -0.739,1.18 -2.71,4.272 -3.977,5.301 1.12,0.5 4.123,0.883 4.123,4.239 0,3.506 -3.504,4.682 -6.508,4.71 -1.295,0 -3.062,-0.206 -3.914,-0.206 -0.708,0 -2.267,0.061 -2.267,0.061 V 8.009 C -3.063,7.86 -2.531,7.448 -2.531,5.506 v -11.75 c 0,-2.235 -0.471,-2.648 -1.708,-2.795 V -9.45 c 0,0 1.942,0.058 2.914,0.058 1.649,-0.029 3.033,-0.029 3.033,-0.029 v 0.382 C 0.383,-8.774 0.117,-8.717 0,-6.244 v 5.39 c 1.973,0.177 3.268,-1.325 4.681,-3.502 0.942,-1.446 2.178,-3.71 3.386,-5.065 0.412,0 1.473,0.029 2.001,0.029 0.589,0 1.68,-0.058 1.68,-0.058 v 0.411 c -1.62,0.235 -1.592,0.411 -3.444,3.355"
         style="fill:#231f20;fill-opacity:1;fill-rule:nonzero;stroke:none"
         id="path2591" /></g></g></svg>
